M48
; DRILL file KiCad 10.0.3 date 2026-08-30T20:21:27
; FORMAT={-:-/ absolute / metric / decimal}
; #@! TF.CreationDate,2026-08-30T20:21:27+05:45
; #@! TF.GenerationSoftware,Kicad,Pcbnew,10.0.3
; #@! TF.FileFunction,Plated,1,2,PTH
FMAT,2
METRIC
; #@! TA.AperFunction,Plated,PTH,ComponentDrill
T1C0.787
; #@! TA.AperFunction,Plated,PTH,ComponentDrill
T2C0.800
; #@! TA.AperFunction,Plated,PTH,ComponentDrill
T3C0.850
; #@! TA.AperFunction,Plated,PTH,ComponentDrill
T4C0.900
; #@! TA.AperFunction,Plated,PTH,ComponentDrill
T5C1.000
%
G90
G05
T1
X131.38Y-86.96
X131.38Y-89.5
X131.38Y-92.04
X131.38Y-94.58
X131.38Y-97.12
X131.38Y-99.66
X131.38Y-102.2
X131.38Y-104.74
X139.0Y-86.96
X139.0Y-89.5
X139.0Y-92.04
X139.0Y-94.58
X139.0Y-97.12
X139.0Y-99.66
X139.0Y-102.2
X139.0Y-104.74
T2
X144.622Y-84.407
X144.622Y-92.027
X152.69Y-90.69
X152.69Y-98.31
X155.23Y-90.69
X155.23Y-98.31
X157.77Y-90.69
X157.77Y-98.31
X160.0Y-85.0
X160.31Y-90.69
X160.31Y-98.31
X162.0Y-85.0
X166.0Y-98.0
X166.0Y-105.62
T3
X153.92Y-103.5
X156.46Y-103.5
X159.0Y-103.5
T4
X126.082Y-87.677
X126.082Y-92.177
X126.082Y-96.677
X126.082Y-101.177
X126.082Y-105.677
X128.622Y-87.677
X128.622Y-92.177
X128.622Y-96.677
X128.622Y-101.177
X128.622Y-105.677
X132.622Y-81.677
X132.622Y-84.217
X137.622Y-81.677
X137.622Y-84.217
X142.082Y-96.677
X142.082Y-101.177
X142.082Y-105.677
X144.622Y-96.677
X144.622Y-101.177
X144.622Y-105.677
T5
X150.5Y-85.5
X155.5Y-85.5
X166.0Y-91.0
X166.0Y-93.54
X166.5Y-85.0
M30
