%TF.GenerationSoftware,KiCad,Pcbnew,10.0.3*%
%TF.CreationDate,2026-08-30T20:21:07+05:45*%
%TF.ProjectId,LED-chaser,4c45442d-6368-4617-9365-722e6b696361,rev?*%
%TF.SameCoordinates,Original*%
%TF.FileFunction,Legend,Bot*%
%TF.FilePolarity,Positive*%
%FSLAX46Y46*%
G04 Gerber Fmt 4.6, Leading zero omitted, Abs format (unit mm)*
G04 Created by KiCad (PCBNEW 10.0.3) date 2026-08-30 20:21:07*
%MOMM*%
%LPD*%
G01*
G04 APERTURE LIST*
%ADD10C,0.200000*%
G04 APERTURE END LIST*
D10*
X149237469Y-116843409D02*
X149100564Y-116891028D01*
X149100564Y-116891028D02*
X149058898Y-116938647D01*
X149058898Y-116938647D02*
X149023183Y-117033885D01*
X149023183Y-117033885D02*
X149041041Y-117176742D01*
X149041041Y-117176742D02*
X149100564Y-117271980D01*
X149100564Y-117271980D02*
X149154136Y-117319600D01*
X149154136Y-117319600D02*
X149255326Y-117367219D01*
X149255326Y-117367219D02*
X149636279Y-117367219D01*
X149636279Y-117367219D02*
X149511279Y-116367219D01*
X149511279Y-116367219D02*
X149177945Y-116367219D01*
X149177945Y-116367219D02*
X149088660Y-116414838D01*
X149088660Y-116414838D02*
X149046993Y-116462457D01*
X149046993Y-116462457D02*
X149011279Y-116557695D01*
X149011279Y-116557695D02*
X149023183Y-116652933D01*
X149023183Y-116652933D02*
X149082707Y-116748171D01*
X149082707Y-116748171D02*
X149136279Y-116795790D01*
X149136279Y-116795790D02*
X149237469Y-116843409D01*
X149237469Y-116843409D02*
X149570802Y-116843409D01*
X148160088Y-117367219D02*
X148636279Y-117367219D01*
X148636279Y-117367219D02*
X148511279Y-116367219D01*
X147826755Y-117367219D02*
X147701755Y-116367219D01*
X147350565Y-117367219D02*
X147225565Y-116367219D01*
X147225565Y-116367219D02*
X146779136Y-117367219D01*
X146779136Y-117367219D02*
X146654136Y-116367219D01*
X146302946Y-117367219D02*
X146177946Y-116367219D01*
X145731517Y-117367219D02*
X146088660Y-116795790D01*
X145606517Y-116367219D02*
X146249374Y-116938647D01*
X145052946Y-116891028D02*
X145112469Y-117367219D01*
X145320803Y-116367219D02*
X145052946Y-116891028D01*
X145052946Y-116891028D02*
X144654136Y-116367219D01*
X143285088Y-116843409D02*
X143148183Y-116891028D01*
X143148183Y-116891028D02*
X143106517Y-116938647D01*
X143106517Y-116938647D02*
X143070802Y-117033885D01*
X143070802Y-117033885D02*
X143088660Y-117176742D01*
X143088660Y-117176742D02*
X143148183Y-117271980D01*
X143148183Y-117271980D02*
X143201755Y-117319600D01*
X143201755Y-117319600D02*
X143302945Y-117367219D01*
X143302945Y-117367219D02*
X143683898Y-117367219D01*
X143683898Y-117367219D02*
X143558898Y-116367219D01*
X143558898Y-116367219D02*
X143225564Y-116367219D01*
X143225564Y-116367219D02*
X143136279Y-116414838D01*
X143136279Y-116414838D02*
X143094612Y-116462457D01*
X143094612Y-116462457D02*
X143058898Y-116557695D01*
X143058898Y-116557695D02*
X143070802Y-116652933D01*
X143070802Y-116652933D02*
X143130326Y-116748171D01*
X143130326Y-116748171D02*
X143183898Y-116795790D01*
X143183898Y-116795790D02*
X143285088Y-116843409D01*
X143285088Y-116843409D02*
X143618421Y-116843409D01*
X142368421Y-116367219D02*
X142177945Y-116367219D01*
X142177945Y-116367219D02*
X142088660Y-116414838D01*
X142088660Y-116414838D02*
X142005326Y-116510076D01*
X142005326Y-116510076D02*
X141981517Y-116700552D01*
X141981517Y-116700552D02*
X142023183Y-117033885D01*
X142023183Y-117033885D02*
X142094612Y-117224361D01*
X142094612Y-117224361D02*
X142201755Y-117319600D01*
X142201755Y-117319600D02*
X142302945Y-117367219D01*
X142302945Y-117367219D02*
X142493421Y-117367219D01*
X142493421Y-117367219D02*
X142582707Y-117319600D01*
X142582707Y-117319600D02*
X142666041Y-117224361D01*
X142666041Y-117224361D02*
X142689850Y-117033885D01*
X142689850Y-117033885D02*
X142648183Y-116700552D01*
X142648183Y-116700552D02*
X142576755Y-116510076D01*
X142576755Y-116510076D02*
X142469612Y-116414838D01*
X142469612Y-116414838D02*
X142368421Y-116367219D01*
X141648183Y-117081504D02*
X141171993Y-117081504D01*
X141779136Y-117367219D02*
X141320802Y-116367219D01*
X141320802Y-116367219D02*
X141112469Y-117367219D01*
X140207707Y-117367219D02*
X140481517Y-116891028D01*
X140779136Y-117367219D02*
X140654136Y-116367219D01*
X140654136Y-116367219D02*
X140273183Y-116367219D01*
X140273183Y-116367219D02*
X140183898Y-116414838D01*
X140183898Y-116414838D02*
X140142231Y-116462457D01*
X140142231Y-116462457D02*
X140106517Y-116557695D01*
X140106517Y-116557695D02*
X140124374Y-116700552D01*
X140124374Y-116700552D02*
X140183898Y-116795790D01*
X140183898Y-116795790D02*
X140237469Y-116843409D01*
X140237469Y-116843409D02*
X140338659Y-116891028D01*
X140338659Y-116891028D02*
X140719612Y-116891028D01*
X139779136Y-117367219D02*
X139654136Y-116367219D01*
X139654136Y-116367219D02*
X139416040Y-116367219D01*
X139416040Y-116367219D02*
X139279136Y-116414838D01*
X139279136Y-116414838D02*
X139195802Y-116510076D01*
X139195802Y-116510076D02*
X139160088Y-116605314D01*
X139160088Y-116605314D02*
X139136279Y-116795790D01*
X139136279Y-116795790D02*
X139154136Y-116938647D01*
X139154136Y-116938647D02*
X139225564Y-117129123D01*
X139225564Y-117129123D02*
X139285088Y-117224361D01*
X139285088Y-117224361D02*
X139392231Y-117319600D01*
X139392231Y-117319600D02*
X139541040Y-117367219D01*
X139541040Y-117367219D02*
X139779136Y-117367219D01*
M02*
