%TF.GenerationSoftware,KiCad,Pcbnew,10.0.3*%
%TF.CreationDate,2026-08-30T20:21:07+05:45*%
%TF.ProjectId,LED-chaser,4c45442d-6368-4617-9365-722e6b696361,rev?*%
%TF.SameCoordinates,Original*%
%TF.FileFunction,Copper,L2,Bot*%
%TF.FilePolarity,Positive*%
%FSLAX46Y46*%
G04 Gerber Fmt 4.6, Leading zero omitted, Abs format (unit mm)*
G04 Created by KiCad (PCBNEW 10.0.3) date 2026-08-30 20:21:07*
%MOMM*%
%LPD*%
G01*
G04 APERTURE LIST*
G04 Aperture macros list*
%AMRoundRect*
0 Rectangle with rounded corners*
0 $1 Rounding radius*
0 $2 $3 $4 $5 $6 $7 $8 $9 X,Y pos of 4 corners*
0 Add a 4 corners polygon primitive as box body*
4,1,4,$2,$3,$4,$5,$6,$7,$8,$9,$2,$3,0*
0 Add four circle primitives for the rounded corners*
1,1,$1+$1,$2,$3*
1,1,$1+$1,$4,$5*
1,1,$1+$1,$6,$7*
1,1,$1+$1,$8,$9*
0 Add four rect primitives between the rounded corners*
20,1,$1+$1,$2,$3,$4,$5,0*
20,1,$1+$1,$4,$5,$6,$7,0*
20,1,$1+$1,$6,$7,$8,$9,0*
20,1,$1+$1,$8,$9,$2,$3,0*%
G04 Aperture macros list end*
%TA.AperFunction,ComponentPad*%
%ADD10R,1.800000X1.800000*%
%TD*%
%TA.AperFunction,ComponentPad*%
%ADD11C,1.800000*%
%TD*%
%TA.AperFunction,ComponentPad*%
%ADD12R,1.700000X1.700000*%
%TD*%
%TA.AperFunction,ComponentPad*%
%ADD13C,1.700000*%
%TD*%
%TA.AperFunction,ComponentPad*%
%ADD14RoundRect,0.250000X-0.550000X-0.550000X0.550000X-0.550000X0.550000X0.550000X-0.550000X0.550000X0*%
%TD*%
%TA.AperFunction,ComponentPad*%
%ADD15C,1.600000*%
%TD*%
%TA.AperFunction,ComponentPad*%
%ADD16R,1.295400X1.295400*%
%TD*%
%TA.AperFunction,ComponentPad*%
%ADD17C,1.295400*%
%TD*%
%TA.AperFunction,ComponentPad*%
%ADD18C,2.000000*%
%TD*%
%TA.AperFunction,ComponentPad*%
%ADD19RoundRect,0.412500X-0.412500X-0.412500X0.412500X-0.412500X0.412500X0.412500X-0.412500X0.412500X0*%
%TD*%
%TA.AperFunction,ComponentPad*%
%ADD20C,1.650000*%
%TD*%
%TA.AperFunction,ComponentPad*%
%ADD21RoundRect,0.250000X-0.550000X0.550000X-0.550000X-0.550000X0.550000X-0.550000X0.550000X0.550000X0*%
%TD*%
%TA.AperFunction,Conductor*%
%ADD22C,0.200000*%
%TD*%
G04 APERTURE END LIST*
D10*
%TO.P,D5,1,K_1*%
%TO.N,Net-(D1-K)*%
X128622100Y-87677300D03*
D11*
%TO.P,D5,2,A_2*%
%TO.N,Net-(D10-A)*%
X126082100Y-87677300D03*
%TD*%
D10*
%TO.P,D7,1,K_1*%
%TO.N,Net-(D1-K)*%
X137622100Y-84217300D03*
D11*
%TO.P,D7,2,A_2*%
%TO.N,Net-(D5-A)*%
X137622100Y-81677300D03*
%TD*%
D10*
%TO.P,D4,1,K_1*%
%TO.N,Net-(D1-K)*%
X128622100Y-92177300D03*
D11*
%TO.P,D4,2,A_2*%
%TO.N,Net-(D8-A)*%
X126082100Y-92177300D03*
%TD*%
D12*
%TO.P,J1,1,Pin_1_1*%
%TO.N,+5V*%
X166000000Y-91000000D03*
D13*
%TO.P,J1,2,Pin_2_2*%
%TO.N,GND*%
X166000000Y-93540000D03*
%TD*%
D10*
%TO.P,D9,1,K_1*%
%TO.N,Net-(D1-K)*%
X142082100Y-101177300D03*
D11*
%TO.P,D9,2,A_2*%
%TO.N,Net-(D6-A)*%
X144622100Y-101177300D03*
%TD*%
D14*
%TO.P,C1,1*%
%TO.N,Net-(U1-THRES)*%
X160000000Y-85000000D03*
D15*
%TO.P,C1,2*%
%TO.N,GND*%
X162000000Y-85000000D03*
%TD*%
D10*
%TO.P,D1,1,K_1*%
%TO.N,Net-(D1-K)*%
X128622100Y-105677300D03*
D11*
%TO.P,D1,2,A_2*%
%TO.N,Net-(D7-A)*%
X126082100Y-105677300D03*
%TD*%
D10*
%TO.P,D8,1,K_1*%
%TO.N,Net-(D1-K)*%
X142082100Y-96677300D03*
D11*
%TO.P,D8,2,A_2*%
%TO.N,Net-(D1-A)*%
X144622100Y-96677300D03*
%TD*%
D16*
%TO.P,U2,1,Q5_1*%
%TO.N,Net-(D5-A)*%
X131380000Y-86960000D03*
D17*
%TO.P,U2,2,Q1_2*%
%TO.N,Net-(D9-A)*%
X131380000Y-89500000D03*
%TO.P,U2,3,Q0_3*%
%TO.N,Net-(D10-A)*%
X131380000Y-92040000D03*
%TO.P,U2,4,Q2_4*%
%TO.N,Net-(D8-A)*%
X131380000Y-94580000D03*
%TO.P,U2,5,Q6_5*%
%TO.N,Net-(D4-A)*%
X131380000Y-97120000D03*
%TO.P,U2,6,Q7_6*%
%TO.N,Net-(D3-A)*%
X131380000Y-99660000D03*
%TO.P,U2,7,Q3_7*%
%TO.N,Net-(D7-A)*%
X131380000Y-102200000D03*
%TO.P,U2,8,VSS_8*%
%TO.N,GND*%
X131380000Y-104740000D03*
%TO.P,U2,9,Q8_9*%
%TO.N,Net-(D2-A)*%
X139000000Y-104740000D03*
%TO.P,U2,10,Q4_10*%
%TO.N,Net-(D6-A)*%
X139000000Y-102200000D03*
%TO.P,U2,11,Q9_11*%
%TO.N,Net-(D1-A)*%
X139000000Y-99660000D03*
%TO.P,U2,12,Cout_12*%
%TO.N,unconnected-(U2-Cout-Pad12)*%
X139000000Y-97120000D03*
%TO.P,U2,13,CKEN_13*%
%TO.N,GND*%
X139000000Y-94580000D03*
%TO.P,U2,14,CLK_14*%
%TO.N,OUT*%
X139000000Y-92040000D03*
%TO.P,U2,15,Reset_15*%
%TO.N,GND*%
X139000000Y-89500000D03*
%TO.P,U2,16,VDD_16*%
%TO.N,+5V*%
X139000000Y-86960000D03*
%TD*%
D10*
%TO.P,D2,1,K_1*%
%TO.N,Net-(D1-K)*%
X128622100Y-101177300D03*
D11*
%TO.P,D2,2,A_2*%
%TO.N,Net-(D3-A)*%
X126082100Y-101177300D03*
%TD*%
D18*
%TO.P,C2,1*%
%TO.N,Net-(U1-CONT)*%
X150500000Y-85500000D03*
%TO.P,C2,2*%
%TO.N,GND*%
X155500000Y-85500000D03*
%TD*%
D19*
%TO.P,RV1,1,1_1*%
%TO.N,Net-(R1-Pad2)*%
X153920000Y-103500000D03*
D20*
%TO.P,RV1,2,2_2*%
%TO.N,Net-(U1-DISCH)*%
X156460000Y-103500000D03*
%TO.P,RV1,3,3_3*%
%TO.N,Net-(U1-THRES)*%
X159000000Y-103500000D03*
%TD*%
D10*
%TO.P,D10,1,K_1*%
%TO.N,Net-(D1-K)*%
X142082100Y-105677300D03*
D11*
%TO.P,D10,2,A_2*%
%TO.N,Net-(D2-A)*%
X144622100Y-105677300D03*
%TD*%
D15*
%TO.P,R1,1*%
%TO.N,+5V*%
X166000000Y-98000000D03*
%TO.P,R1,2*%
%TO.N,Net-(R1-Pad2)*%
X166000000Y-105620000D03*
%TD*%
D10*
%TO.P,D6,1,K_1*%
%TO.N,Net-(D1-K)*%
X132622100Y-84217300D03*
D11*
%TO.P,D6,2,A_2*%
%TO.N,Net-(D9-A)*%
X132622100Y-81677300D03*
%TD*%
D21*
%TO.P,U1,1,GND_1*%
%TO.N,GND*%
X160310000Y-90690000D03*
D15*
%TO.P,U1,2,TRIG_2*%
%TO.N,Net-(U1-THRES)*%
X157770000Y-90690000D03*
%TO.P,U1,3,OUT_3*%
%TO.N,OUT*%
X155230000Y-90690000D03*
%TO.P,U1,4,~{RST}_4*%
%TO.N,+5V*%
X152690000Y-90690000D03*
%TO.P,U1,5,CONT_5*%
%TO.N,Net-(U1-CONT)*%
X152690000Y-98310000D03*
%TO.P,U1,6,THRES_6*%
%TO.N,Net-(U1-THRES)*%
X155230000Y-98310000D03*
%TO.P,U1,7,DISCH_7*%
%TO.N,Net-(U1-DISCH)*%
X157770000Y-98310000D03*
%TO.P,U1,8,VCC_8*%
%TO.N,+5V*%
X160310000Y-98310000D03*
%TD*%
%TO.P,R2,1*%
%TO.N,Net-(D1-K)*%
X144622100Y-92027300D03*
%TO.P,R2,2*%
%TO.N,GND*%
X144622100Y-84407300D03*
%TD*%
D12*
%TO.P,J2,1,Pin_1_1*%
%TO.N,OUT*%
X166500000Y-85000000D03*
%TD*%
D10*
%TO.P,D3,1,K_1*%
%TO.N,Net-(D1-K)*%
X128622100Y-96677300D03*
D11*
%TO.P,D3,2,A_2*%
%TO.N,Net-(D4-A)*%
X126082100Y-96677300D03*
%TD*%
%TO.N,Net-(D1-K)*%
D22*
X144622100Y-91217300D02*
X137622100Y-84217300D01*
X144622100Y-92027300D02*
X144622100Y-91217300D01*
%TO.N,Net-(D10-A)*%
X126082100Y-87677300D02*
X126177300Y-87677300D01*
X126177300Y-87677300D02*
X128500000Y-90000000D01*
X128500000Y-90000000D02*
X129340000Y-90000000D01*
X129340000Y-90000000D02*
X131380000Y-92040000D01*
%TO.N,Net-(D5-A)*%
X132339400Y-86960000D02*
X131380000Y-86960000D01*
X137622100Y-81677300D02*
X132339400Y-86960000D01*
%TO.N,Net-(D8-A)*%
X128484800Y-94580000D02*
X131380000Y-94580000D01*
X126082100Y-92177300D02*
X128484800Y-94580000D01*
%TO.N,Net-(D6-A)*%
X143299400Y-102500000D02*
X139300000Y-102500000D01*
X144622100Y-101177300D02*
X143299400Y-102500000D01*
X139300000Y-102500000D02*
X139000000Y-102200000D01*
%TO.N,Net-(U1-THRES)*%
X155230000Y-98270000D02*
X157770000Y-95730000D01*
X155230000Y-98230000D02*
X155000000Y-98000000D01*
X157770000Y-89230000D02*
X160000000Y-87000000D01*
X157770000Y-90690000D02*
X157770000Y-89230000D01*
X157770000Y-95730000D02*
X157770000Y-90690000D01*
X155230000Y-98310000D02*
X155230000Y-98270000D01*
X160000000Y-87000000D02*
X160000000Y-85000000D01*
%TO.N,Net-(D7-A)*%
X131202700Y-102377300D02*
X131380000Y-102200000D01*
X129500000Y-104000000D02*
X131122700Y-102377300D01*
X127759400Y-104000000D02*
X129500000Y-104000000D01*
X126082100Y-105677300D02*
X127759400Y-104000000D01*
X131122700Y-102377300D02*
X131202700Y-102377300D01*
%TO.N,Net-(D1-A)*%
X141639400Y-99660000D02*
X139000000Y-99660000D01*
X144622100Y-96677300D02*
X141639400Y-99660000D01*
%TO.N,Net-(D9-A)*%
X130432300Y-88552300D02*
X131380000Y-89500000D01*
X132622100Y-81677300D02*
X130432300Y-83867100D01*
X130432300Y-83867100D02*
X130432300Y-88552300D01*
%TO.N,Net-(D4-A)*%
X126082100Y-96677300D02*
X127282100Y-97877300D01*
X127282100Y-97877300D02*
X130622700Y-97877300D01*
X130622700Y-97877300D02*
X131380000Y-97120000D01*
%TO.N,Net-(D3-A)*%
X126082100Y-101177300D02*
X127599400Y-99660000D01*
X127599400Y-99660000D02*
X131380000Y-99660000D01*
%TO.N,Net-(D2-A)*%
X139000000Y-104740000D02*
X139647700Y-104092300D01*
X143037100Y-104092300D02*
X144622100Y-105677300D01*
X139647700Y-104092300D02*
X143037100Y-104092300D01*
%TO.N,Net-(U1-CONT)*%
X151500000Y-97120000D02*
X151500000Y-86500000D01*
X151500000Y-86500000D02*
X150500000Y-85500000D01*
X152690000Y-98310000D02*
X151500000Y-97120000D01*
%TD*%
%TA.AperFunction,Conductor*%
%TO.N,GND*%
G36*
X172916707Y-79520478D02*
G01*
X172962963Y-79572844D01*
X172973564Y-79641904D01*
X172972591Y-79648006D01*
X168146302Y-105709959D01*
X168114739Y-105772293D01*
X168111007Y-105776098D01*
X167182616Y-106682669D01*
X167182590Y-106682695D01*
X161169912Y-112550520D01*
X161169911Y-112550519D01*
X161164831Y-112555475D01*
X161164812Y-112555488D01*
X161128247Y-112591179D01*
X161122158Y-112597123D01*
X161117967Y-112601215D01*
X161117958Y-112601223D01*
X161065016Y-112652891D01*
X161064917Y-112653001D01*
X154312115Y-119244830D01*
X154250393Y-119277573D01*
X154217599Y-119279846D01*
X136099776Y-118123388D01*
X136034127Y-118099473D01*
X136021826Y-118089116D01*
X134312943Y-116449521D01*
X134294664Y-116431983D01*
X134294664Y-116431982D01*
X134212826Y-116353463D01*
X134199574Y-116340748D01*
X134199573Y-116340747D01*
X134195629Y-116336963D01*
X134195612Y-116336947D01*
X131965095Y-114196901D01*
X131957412Y-114189530D01*
X131957412Y-114189529D01*
X131926971Y-114160324D01*
X131862325Y-114098300D01*
X131862323Y-114098299D01*
X131856840Y-114093038D01*
X131856813Y-114093014D01*
X129164096Y-111509623D01*
X129158139Y-111503908D01*
X129158137Y-111503904D01*
X129091775Y-111440239D01*
X129063046Y-111412676D01*
X129059097Y-111408887D01*
X129059078Y-111408870D01*
X126363755Y-108823070D01*
X126357317Y-108816894D01*
X126357313Y-108816887D01*
X126281894Y-108744536D01*
X126281892Y-108744534D01*
X126262229Y-108725669D01*
X126262226Y-108725667D01*
X126262222Y-108725663D01*
X126262220Y-108725661D01*
X123966457Y-106523278D01*
X121966784Y-104602790D01*
X120217270Y-102917721D01*
X120217279Y-102917710D01*
X120217166Y-102917621D01*
X119349369Y-102079751D01*
X119314816Y-102019028D01*
X119311682Y-101983862D01*
X120090968Y-87567078D01*
X124681600Y-87567078D01*
X124681600Y-87787522D01*
X124691501Y-87850035D01*
X124716085Y-88005252D01*
X124784203Y-88214903D01*
X124784204Y-88214906D01*
X124829379Y-88303565D01*
X124868610Y-88380559D01*
X124884287Y-88411325D01*
X125013852Y-88589658D01*
X125013856Y-88589663D01*
X125169736Y-88745543D01*
X125169741Y-88745547D01*
X125325292Y-88858560D01*
X125348078Y-88875115D01*
X125471529Y-88938017D01*
X125544493Y-88975195D01*
X125544496Y-88975196D01*
X125612041Y-88997142D01*
X125754149Y-89043315D01*
X125971878Y-89077800D01*
X125971879Y-89077800D01*
X126192321Y-89077800D01*
X126192322Y-89077800D01*
X126410051Y-89043315D01*
X126552159Y-88997141D01*
X126621999Y-88995147D01*
X126678157Y-89027392D01*
X128015139Y-90364374D01*
X128015149Y-90364385D01*
X128019479Y-90368715D01*
X128019480Y-90368716D01*
X128131284Y-90480520D01*
X128218095Y-90530639D01*
X128243684Y-90545413D01*
X128291899Y-90595979D01*
X128305123Y-90664586D01*
X128279155Y-90729451D01*
X128222241Y-90769980D01*
X128181684Y-90776800D01*
X127674229Y-90776800D01*
X127674223Y-90776801D01*
X127614616Y-90783208D01*
X127479771Y-90833502D01*
X127479764Y-90833506D01*
X127364555Y-90919752D01*
X127364552Y-90919755D01*
X127278306Y-91034964D01*
X127278303Y-91034969D01*
X127248498Y-91114881D01*
X127206626Y-91170814D01*
X127141162Y-91195231D01*
X127072889Y-91180379D01*
X127044635Y-91159228D01*
X126994463Y-91109056D01*
X126994458Y-91109052D01*
X126816125Y-90979487D01*
X126816124Y-90979486D01*
X126816122Y-90979485D01*
X126730006Y-90935606D01*
X126619706Y-90879404D01*
X126619703Y-90879403D01*
X126410052Y-90811285D01*
X126290513Y-90792352D01*
X126192322Y-90776800D01*
X125971878Y-90776800D01*
X125899301Y-90788295D01*
X125754147Y-90811285D01*
X125544496Y-90879403D01*
X125544493Y-90879404D01*
X125348074Y-90979487D01*
X125169741Y-91109052D01*
X125169736Y-91109056D01*
X125013856Y-91264936D01*
X125013852Y-91264941D01*
X124884287Y-91443274D01*
X124784204Y-91639693D01*
X124784203Y-91639696D01*
X124716085Y-91849347D01*
X124704111Y-91924948D01*
X124681600Y-92067078D01*
X124681600Y-92287522D01*
X124693223Y-92360906D01*
X124716085Y-92505252D01*
X124784203Y-92714903D01*
X124784204Y-92714906D01*
X124884287Y-92911325D01*
X125013852Y-93089658D01*
X125013856Y-93089663D01*
X125169736Y-93245543D01*
X125169741Y-93245547D01*
X125271706Y-93319628D01*
X125348078Y-93375115D01*
X125476475Y-93440537D01*
X125544493Y-93475195D01*
X125544496Y-93475196D01*
X125611625Y-93497007D01*
X125754149Y-93543315D01*
X125971878Y-93577800D01*
X125971879Y-93577800D01*
X126192321Y-93577800D01*
X126192322Y-93577800D01*
X126410051Y-93543315D01*
X126480305Y-93520487D01*
X126550144Y-93518492D01*
X126606303Y-93550738D01*
X128004278Y-94948713D01*
X128004280Y-94948716D01*
X128116084Y-95060520D01*
X128116086Y-95060521D01*
X128120683Y-95065118D01*
X128154168Y-95126441D01*
X128154167Y-95126441D01*
X128154168Y-95126442D01*
X128149184Y-95196134D01*
X128133699Y-95216819D01*
X128107313Y-95252067D01*
X128041849Y-95276484D01*
X128033002Y-95276800D01*
X127674229Y-95276800D01*
X127674223Y-95276801D01*
X127614616Y-95283208D01*
X127479771Y-95333502D01*
X127479764Y-95333506D01*
X127364555Y-95419752D01*
X127364552Y-95419755D01*
X127278306Y-95534964D01*
X127278303Y-95534969D01*
X127248498Y-95614881D01*
X127206626Y-95670814D01*
X127141162Y-95695231D01*
X127072889Y-95680379D01*
X127044635Y-95659228D01*
X126994463Y-95609056D01*
X126994458Y-95609052D01*
X126816125Y-95479487D01*
X126816124Y-95479486D01*
X126816122Y-95479485D01*
X126718811Y-95429902D01*
X126619706Y-95379404D01*
X126619703Y-95379403D01*
X126410052Y-95311285D01*
X126301186Y-95294042D01*
X126192322Y-95276800D01*
X125971878Y-95276800D01*
X125899301Y-95288295D01*
X125754147Y-95311285D01*
X125544496Y-95379403D01*
X125544493Y-95379404D01*
X125348074Y-95479487D01*
X125169741Y-95609052D01*
X125169736Y-95609056D01*
X125013856Y-95764936D01*
X125013852Y-95764941D01*
X124884287Y-95943274D01*
X124784204Y-96139693D01*
X124784203Y-96139696D01*
X124716085Y-96349347D01*
X124681600Y-96567078D01*
X124681600Y-96787521D01*
X124716085Y-97005252D01*
X124784203Y-97214903D01*
X124784204Y-97214906D01*
X124836749Y-97318028D01*
X124872843Y-97388867D01*
X124884287Y-97411325D01*
X125013852Y-97589658D01*
X125013856Y-97589663D01*
X125169736Y-97745543D01*
X125169741Y-97745547D01*
X125229097Y-97788671D01*
X125348078Y-97875115D01*
X125476475Y-97940537D01*
X125544493Y-97975195D01*
X125544496Y-97975196D01*
X125611625Y-97997007D01*
X125754149Y-98043315D01*
X125971878Y-98077800D01*
X125971879Y-98077800D01*
X126192321Y-98077800D01*
X126192322Y-98077800D01*
X126410051Y-98043315D01*
X126480305Y-98020487D01*
X126550144Y-98018492D01*
X126606303Y-98050738D01*
X126797239Y-98241674D01*
X126797249Y-98241685D01*
X126801579Y-98246015D01*
X126801580Y-98246016D01*
X126913384Y-98357820D01*
X127000195Y-98407939D01*
X127000197Y-98407941D01*
X127050313Y-98436876D01*
X127050315Y-98436877D01*
X127203042Y-98477800D01*
X127203043Y-98477800D01*
X130536032Y-98477800D01*
X130543639Y-98477800D01*
X130543643Y-98477801D01*
X130672091Y-98477801D01*
X130739130Y-98497486D01*
X130784885Y-98550290D01*
X130792291Y-98601801D01*
X130794828Y-98619448D01*
X130765803Y-98683004D01*
X130744975Y-98702119D01*
X130632004Y-98784196D01*
X130631999Y-98784200D01*
X130504202Y-98911997D01*
X130504198Y-98912003D01*
X130434172Y-99008386D01*
X130378844Y-99051051D01*
X130333855Y-99059500D01*
X127678457Y-99059500D01*
X127520342Y-99059500D01*
X127367615Y-99100423D01*
X127367614Y-99100423D01*
X127367612Y-99100424D01*
X127367609Y-99100425D01*
X127317496Y-99129359D01*
X127317495Y-99129360D01*
X127274089Y-99154420D01*
X127230685Y-99179479D01*
X127230682Y-99179481D01*
X127118878Y-99291286D01*
X126606302Y-99803861D01*
X126544979Y-99837346D01*
X126480303Y-99834111D01*
X126455684Y-99826112D01*
X126410052Y-99811285D01*
X126301186Y-99794042D01*
X126192322Y-99776800D01*
X125971878Y-99776800D01*
X125899301Y-99788295D01*
X125754147Y-99811285D01*
X125544496Y-99879403D01*
X125544493Y-99879404D01*
X125348074Y-99979487D01*
X125169741Y-100109052D01*
X125169736Y-100109056D01*
X125013856Y-100264936D01*
X125013852Y-100264941D01*
X124884287Y-100443274D01*
X124784204Y-100639693D01*
X124784203Y-100639696D01*
X124716085Y-100849347D01*
X124681600Y-101067078D01*
X124681600Y-101287521D01*
X124716085Y-101505252D01*
X124784203Y-101714903D01*
X124784204Y-101714906D01*
X124841326Y-101827011D01*
X124878261Y-101899500D01*
X124884287Y-101911325D01*
X125013852Y-102089658D01*
X125013856Y-102089663D01*
X125169736Y-102245543D01*
X125169741Y-102245547D01*
X125325292Y-102358560D01*
X125348078Y-102375115D01*
X125472190Y-102438354D01*
X125544493Y-102475195D01*
X125544496Y-102475196D01*
X125586874Y-102488965D01*
X125754149Y-102543315D01*
X125971878Y-102577800D01*
X125971879Y-102577800D01*
X126192321Y-102577800D01*
X126192322Y-102577800D01*
X126410051Y-102543315D01*
X126619706Y-102475195D01*
X126816122Y-102375115D01*
X126994465Y-102245542D01*
X127044636Y-102195370D01*
X127105957Y-102161886D01*
X127175648Y-102166870D01*
X127231582Y-102208741D01*
X127248498Y-102239719D01*
X127278302Y-102319628D01*
X127278306Y-102319635D01*
X127364552Y-102434844D01*
X127364555Y-102434847D01*
X127479764Y-102521093D01*
X127479771Y-102521097D01*
X127614617Y-102571391D01*
X127614616Y-102571391D01*
X127621544Y-102572135D01*
X127674227Y-102577800D01*
X129569972Y-102577799D01*
X129629583Y-102571391D01*
X129764431Y-102521096D01*
X129829260Y-102472564D01*
X129894721Y-102448148D01*
X129962994Y-102462999D01*
X130012400Y-102512403D01*
X130027253Y-102580676D01*
X130002838Y-102646141D01*
X129991250Y-102659513D01*
X129287584Y-103363181D01*
X129226261Y-103396666D01*
X129199903Y-103399500D01*
X127680341Y-103399500D01*
X127658442Y-103405367D01*
X127658443Y-103405368D01*
X127527614Y-103440423D01*
X127527609Y-103440426D01*
X127390690Y-103519475D01*
X127390682Y-103519481D01*
X127278878Y-103631286D01*
X126606302Y-104303861D01*
X126544979Y-104337346D01*
X126480303Y-104334111D01*
X126435335Y-104319500D01*
X126410052Y-104311285D01*
X126301186Y-104294042D01*
X126192322Y-104276800D01*
X125971878Y-104276800D01*
X125928711Y-104283637D01*
X125754147Y-104311285D01*
X125544496Y-104379403D01*
X125544493Y-104379404D01*
X125348074Y-104479487D01*
X125169741Y-104609052D01*
X125169736Y-104609056D01*
X125013856Y-104764936D01*
X125013852Y-104764941D01*
X124884287Y-104943274D01*
X124784204Y-105139693D01*
X124784203Y-105139696D01*
X124716085Y-105349347D01*
X124681600Y-105567078D01*
X124681600Y-105787521D01*
X124716085Y-106005252D01*
X124784203Y-106214903D01*
X124784204Y-106214906D01*
X124884287Y-106411325D01*
X125013852Y-106589658D01*
X125013856Y-106589663D01*
X125169736Y-106745543D01*
X125169741Y-106745547D01*
X125271703Y-106819626D01*
X125348078Y-106875115D01*
X125476475Y-106940537D01*
X125544493Y-106975195D01*
X125544496Y-106975196D01*
X125649321Y-107009255D01*
X125754149Y-107043315D01*
X125971878Y-107077800D01*
X125971879Y-107077800D01*
X126192321Y-107077800D01*
X126192322Y-107077800D01*
X126410051Y-107043315D01*
X126619706Y-106975195D01*
X126816122Y-106875115D01*
X126994465Y-106745542D01*
X127044636Y-106695370D01*
X127105957Y-106661886D01*
X127175648Y-106666870D01*
X127231582Y-106708741D01*
X127248498Y-106739719D01*
X127278302Y-106819628D01*
X127278306Y-106819635D01*
X127364552Y-106934844D01*
X127364555Y-106934847D01*
X127479764Y-107021093D01*
X127479771Y-107021097D01*
X127614617Y-107071391D01*
X127614616Y-107071391D01*
X127621544Y-107072135D01*
X127674227Y-107077800D01*
X129569972Y-107077799D01*
X129629583Y-107071391D01*
X129764431Y-107021096D01*
X129879646Y-106934846D01*
X129965896Y-106819631D01*
X130016191Y-106684783D01*
X130022600Y-106625173D01*
X130022599Y-105059288D01*
X130042284Y-104992250D01*
X130095088Y-104946495D01*
X130164246Y-104936551D01*
X130227802Y-104965576D01*
X130264530Y-105020971D01*
X130316386Y-105180566D01*
X130398401Y-105341529D01*
X130409558Y-105356886D01*
X130409559Y-105356886D01*
X130986300Y-104780145D01*
X130986300Y-104791832D01*
X131013130Y-104891962D01*
X131064962Y-104981737D01*
X131138263Y-105055038D01*
X131228038Y-105106870D01*
X131328168Y-105133700D01*
X131339853Y-105133700D01*
X130763112Y-105710438D01*
X130763112Y-105710439D01*
X130778477Y-105721602D01*
X130939433Y-105803613D01*
X131111249Y-105859440D01*
X131289669Y-105887700D01*
X131470331Y-105887700D01*
X131648750Y-105859440D01*
X131820566Y-105803613D01*
X131981528Y-105721599D01*
X131981532Y-105721597D01*
X131996886Y-105710440D01*
X131996887Y-105710439D01*
X131420148Y-105133700D01*
X131431832Y-105133700D01*
X131531962Y-105106870D01*
X131621737Y-105055038D01*
X131695038Y-104981737D01*
X131746870Y-104891962D01*
X131773700Y-104791832D01*
X131773700Y-104780147D01*
X132350440Y-105356887D01*
X132350440Y-105356886D01*
X132361597Y-105341532D01*
X132361599Y-105341528D01*
X132443613Y-105180566D01*
X132499440Y-105008750D01*
X132527700Y-104830331D01*
X132527700Y-104649668D01*
X132527695Y-104649635D01*
X137851800Y-104649635D01*
X137851800Y-104830364D01*
X137880053Y-105008750D01*
X137880073Y-105008871D01*
X137935922Y-105180756D01*
X138017840Y-105341529D01*
X138017974Y-105341791D01*
X138124196Y-105487996D01*
X138252003Y-105615803D01*
X138381600Y-105709959D01*
X138398212Y-105722028D01*
X138559244Y-105804078D01*
X138731129Y-105859927D01*
X138909635Y-105888200D01*
X138909636Y-105888200D01*
X139090364Y-105888200D01*
X139090365Y-105888200D01*
X139268871Y-105859927D01*
X139440756Y-105804078D01*
X139601788Y-105722028D01*
X139683879Y-105662385D01*
X139747996Y-105615803D01*
X139747998Y-105615800D01*
X139748002Y-105615798D01*
X139875798Y-105488002D01*
X139875800Y-105487998D01*
X139875803Y-105487996D01*
X139961761Y-105369683D01*
X139982028Y-105341788D01*
X140064078Y-105180756D01*
X140119927Y-105008871D01*
X140148200Y-104830365D01*
X140148200Y-104816800D01*
X140167885Y-104749761D01*
X140220689Y-104704006D01*
X140272200Y-104692800D01*
X140557600Y-104692800D01*
X140624639Y-104712485D01*
X140670394Y-104765289D01*
X140681600Y-104816800D01*
X140681600Y-106625170D01*
X140681601Y-106625176D01*
X140688008Y-106684783D01*
X140738302Y-106819628D01*
X140738306Y-106819635D01*
X140824552Y-106934844D01*
X140824555Y-106934847D01*
X140939764Y-107021093D01*
X140939771Y-107021097D01*
X141074617Y-107071391D01*
X141074616Y-107071391D01*
X141081544Y-107072135D01*
X141134227Y-107077800D01*
X143029972Y-107077799D01*
X143089583Y-107071391D01*
X143224431Y-107021096D01*
X143339646Y-106934846D01*
X143425896Y-106819631D01*
X143453529Y-106745543D01*
X143455701Y-106739720D01*
X143497571Y-106683786D01*
X143563036Y-106659368D01*
X143631309Y-106674219D01*
X143659564Y-106695371D01*
X143709736Y-106745543D01*
X143709741Y-106745547D01*
X143811703Y-106819626D01*
X143888078Y-106875115D01*
X144016475Y-106940537D01*
X144084493Y-106975195D01*
X144084496Y-106975196D01*
X144189321Y-107009255D01*
X144294149Y-107043315D01*
X144511878Y-107077800D01*
X144511879Y-107077800D01*
X144732321Y-107077800D01*
X144732322Y-107077800D01*
X144950051Y-107043315D01*
X145159706Y-106975195D01*
X145356122Y-106875115D01*
X145534465Y-106745542D01*
X145690342Y-106589665D01*
X145819915Y-106411322D01*
X145919995Y-106214906D01*
X145988115Y-106005251D01*
X146022600Y-105787522D01*
X146022600Y-105567078D01*
X146014771Y-105517648D01*
X164699500Y-105517648D01*
X164699500Y-105722351D01*
X164731522Y-105924534D01*
X164794781Y-106119223D01*
X164887715Y-106301613D01*
X165008028Y-106467213D01*
X165152786Y-106611971D01*
X165267579Y-106695371D01*
X165318390Y-106732287D01*
X165434607Y-106791503D01*
X165500776Y-106825218D01*
X165500778Y-106825218D01*
X165500781Y-106825220D01*
X165605137Y-106859127D01*
X165695465Y-106888477D01*
X165796557Y-106904488D01*
X165897648Y-106920500D01*
X165897649Y-106920500D01*
X166102351Y-106920500D01*
X166102352Y-106920500D01*
X166304534Y-106888477D01*
X166499219Y-106825220D01*
X166681610Y-106732287D01*
X166774590Y-106664732D01*
X166847213Y-106611971D01*
X166847215Y-106611968D01*
X166847219Y-106611966D01*
X166991966Y-106467219D01*
X166991968Y-106467215D01*
X166991971Y-106467213D01*
X167044732Y-106394590D01*
X167112287Y-106301610D01*
X167205220Y-106119219D01*
X167268477Y-105924534D01*
X167300500Y-105722352D01*
X167300500Y-105517648D01*
X167275038Y-105356887D01*
X167268477Y-105315465D01*
X167211365Y-105139693D01*
X167205220Y-105120781D01*
X167205218Y-105120778D01*
X167205218Y-105120776D01*
X167134373Y-104981737D01*
X167112287Y-104938390D01*
X167104556Y-104927749D01*
X166991971Y-104772786D01*
X166847213Y-104628028D01*
X166681613Y-104507715D01*
X166681612Y-104507714D01*
X166681610Y-104507713D01*
X166624653Y-104478691D01*
X166499223Y-104414781D01*
X166304534Y-104351522D01*
X166129995Y-104323878D01*
X166102352Y-104319500D01*
X165897648Y-104319500D01*
X165873329Y-104323351D01*
X165695465Y-104351522D01*
X165500776Y-104414781D01*
X165318386Y-104507715D01*
X165152786Y-104628028D01*
X165008028Y-104772786D01*
X164887715Y-104938386D01*
X164794781Y-105120776D01*
X164731522Y-105315465D01*
X164699500Y-105517648D01*
X146014771Y-105517648D01*
X145988115Y-105349349D01*
X145954055Y-105244521D01*
X145919996Y-105139696D01*
X145919995Y-105139693D01*
X145859502Y-105020971D01*
X145819915Y-104943278D01*
X145782632Y-104891962D01*
X145690347Y-104764941D01*
X145690343Y-104764936D01*
X145534463Y-104609056D01*
X145534458Y-104609052D01*
X145356125Y-104479487D01*
X145356124Y-104479486D01*
X145356122Y-104479485D01*
X145249116Y-104424962D01*
X145159706Y-104379404D01*
X145159703Y-104379403D01*
X144950052Y-104311285D01*
X144841186Y-104294042D01*
X144732322Y-104276800D01*
X144511878Y-104276800D01*
X144468711Y-104283637D01*
X144294145Y-104311285D01*
X144223894Y-104334111D01*
X144154053Y-104336106D01*
X144097896Y-104303861D01*
X143524690Y-103730655D01*
X143524688Y-103730652D01*
X143405817Y-103611781D01*
X143405816Y-103611780D01*
X143319004Y-103561660D01*
X143319004Y-103561659D01*
X143319000Y-103561658D01*
X143268885Y-103532723D01*
X143116157Y-103491799D01*
X142958043Y-103491799D01*
X142950447Y-103491799D01*
X142950431Y-103491800D01*
X139568643Y-103491800D01*
X139419213Y-103531838D01*
X139419189Y-103531845D01*
X139415915Y-103532723D01*
X139415175Y-103533149D01*
X139415169Y-103533152D01*
X139365796Y-103561659D01*
X139365793Y-103561661D01*
X139303561Y-103597589D01*
X139235660Y-103614060D01*
X139222165Y-103612674D01*
X139094613Y-103592472D01*
X139031479Y-103562543D01*
X139000436Y-103512689D01*
X138965844Y-103564863D01*
X138905386Y-103592473D01*
X138731132Y-103620072D01*
X138559241Y-103675923D01*
X138398208Y-103757974D01*
X138252003Y-103864196D01*
X138124196Y-103992003D01*
X138017974Y-104138208D01*
X137935923Y-104299241D01*
X137880072Y-104471132D01*
X137851800Y-104649635D01*
X132527695Y-104649635D01*
X132499440Y-104471249D01*
X132443613Y-104299433D01*
X132361602Y-104138477D01*
X132350439Y-104123112D01*
X131773700Y-104699851D01*
X131773700Y-104688168D01*
X131746870Y-104588038D01*
X131695038Y-104498263D01*
X131621737Y-104424962D01*
X131531962Y-104373130D01*
X131431832Y-104346300D01*
X131420146Y-104346300D01*
X131996886Y-103769559D01*
X131996886Y-103769558D01*
X131981529Y-103758401D01*
X131820566Y-103676386D01*
X131648750Y-103620559D01*
X131648752Y-103620559D01*
X131473017Y-103592725D01*
X131409883Y-103562795D01*
X131380405Y-103515454D01*
X131366855Y-103535831D01*
X131347439Y-103565115D01*
X131347357Y-103565150D01*
X131347308Y-103565225D01*
X131286982Y-103592725D01*
X131111247Y-103620559D01*
X131111244Y-103620560D01*
X131035755Y-103645088D01*
X130965914Y-103647083D01*
X130906082Y-103611002D01*
X130875254Y-103548301D01*
X130883219Y-103478887D01*
X130909754Y-103439479D01*
X130996045Y-103353188D01*
X131000921Y-103350526D01*
X131003999Y-103345898D01*
X131031254Y-103333963D01*
X131057366Y-103319705D01*
X131063661Y-103319772D01*
X131068001Y-103317872D01*
X131103291Y-103318425D01*
X131109618Y-103319436D01*
X131111129Y-103319927D01*
X131287151Y-103347806D01*
X131318635Y-103362785D01*
X131350115Y-103377708D01*
X131350161Y-103377783D01*
X131350243Y-103377822D01*
X131368611Y-103407412D01*
X131379612Y-103425080D01*
X131412560Y-103375389D01*
X131473015Y-103347780D01*
X131648871Y-103319927D01*
X131820756Y-103264078D01*
X131981788Y-103182028D01*
X132063879Y-103122385D01*
X132127996Y-103075803D01*
X132127998Y-103075800D01*
X132128002Y-103075798D01*
X132255798Y-102948002D01*
X132255800Y-102947998D01*
X132255803Y-102947996D01*
X132313404Y-102868713D01*
X132362028Y-102801788D01*
X132444078Y-102640756D01*
X132499927Y-102468871D01*
X132528200Y-102290365D01*
X132528200Y-102109635D01*
X132499927Y-101931129D01*
X132444078Y-101759244D01*
X132362028Y-101598212D01*
X132355202Y-101588817D01*
X132255803Y-101452003D01*
X132127996Y-101324196D01*
X131981791Y-101217974D01*
X131981790Y-101217973D01*
X131981788Y-101217972D01*
X131820756Y-101135922D01*
X131648871Y-101080073D01*
X131648869Y-101080072D01*
X131648867Y-101080072D01*
X131535420Y-101062103D01*
X131470365Y-101051800D01*
X131289635Y-101051800D01*
X131275745Y-101054000D01*
X131111132Y-101080072D01*
X130939241Y-101135923D01*
X130778208Y-101217974D01*
X130632003Y-101324196D01*
X130504196Y-101452003D01*
X130397974Y-101598208D01*
X130315923Y-101759239D01*
X130264530Y-101917411D01*
X130225092Y-101975086D01*
X130160733Y-102002284D01*
X130091887Y-101990369D01*
X130040411Y-101943125D01*
X130022599Y-101879095D01*
X130022599Y-100384499D01*
X130025149Y-100375814D01*
X130023861Y-100366853D01*
X130034839Y-100342812D01*
X130042284Y-100317461D01*
X130049124Y-100311533D01*
X130052886Y-100303297D01*
X130075120Y-100289007D01*
X130095088Y-100271706D01*
X130105602Y-100269418D01*
X130111664Y-100265523D01*
X130146599Y-100260500D01*
X130333855Y-100260500D01*
X130400894Y-100280185D01*
X130434171Y-100311612D01*
X130474306Y-100366853D01*
X130504202Y-100408002D01*
X130632003Y-100535803D01*
X130768817Y-100635202D01*
X130778212Y-100642028D01*
X130939244Y-100724078D01*
X131111129Y-100779927D01*
X131289635Y-100808200D01*
X131470365Y-100808200D01*
X131648871Y-100779927D01*
X131820756Y-100724078D01*
X131981788Y-100642028D01*
X132063879Y-100582385D01*
X132127996Y-100535803D01*
X132127998Y-100535800D01*
X132128002Y-100535798D01*
X132255798Y-100408002D01*
X132255800Y-100407998D01*
X132255803Y-100407996D01*
X132321579Y-100317461D01*
X132362028Y-100261788D01*
X132444078Y-100100756D01*
X132499927Y-99928871D01*
X132528200Y-99750365D01*
X132528200Y-99569635D01*
X137851800Y-99569635D01*
X137851800Y-99750364D01*
X137878628Y-99919752D01*
X137880073Y-99928871D01*
X137935922Y-100100756D01*
X137987747Y-100202469D01*
X138017974Y-100261791D01*
X138124196Y-100407996D01*
X138252003Y-100535803D01*
X138388817Y-100635202D01*
X138398212Y-100642028D01*
X138559244Y-100724078D01*
X138731129Y-100779927D01*
X138909635Y-100808200D01*
X139090365Y-100808200D01*
X139268871Y-100779927D01*
X139440756Y-100724078D01*
X139601788Y-100642028D01*
X139683879Y-100582385D01*
X139747996Y-100535803D01*
X139747998Y-100535800D01*
X139748002Y-100535798D01*
X139875798Y-100408002D01*
X139945827Y-100311613D01*
X140001156Y-100268949D01*
X140046145Y-100260500D01*
X140557600Y-100260500D01*
X140624639Y-100280185D01*
X140670394Y-100332989D01*
X140681600Y-100384500D01*
X140681601Y-101775500D01*
X140661916Y-101842539D01*
X140609113Y-101888294D01*
X140557601Y-101899500D01*
X140199741Y-101899500D01*
X140132702Y-101879815D01*
X140086947Y-101827011D01*
X140081810Y-101813818D01*
X140064078Y-101759244D01*
X139982028Y-101598212D01*
X139975202Y-101588817D01*
X139875803Y-101452003D01*
X139747996Y-101324196D01*
X139601791Y-101217974D01*
X139601790Y-101217973D01*
X139601788Y-101217972D01*
X139440756Y-101135922D01*
X139268871Y-101080073D01*
X139268869Y-101080072D01*
X139268867Y-101080072D01*
X139155420Y-101062103D01*
X139090365Y-101051800D01*
X138909635Y-101051800D01*
X138895745Y-101054000D01*
X138731132Y-101080072D01*
X138559241Y-101135923D01*
X138398208Y-101217974D01*
X138252003Y-101324196D01*
X138124196Y-101452003D01*
X138017974Y-101598208D01*
X137935923Y-101759241D01*
X137880072Y-101931132D01*
X137851800Y-102109635D01*
X137851800Y-102290364D01*
X137876790Y-102448148D01*
X137880073Y-102468871D01*
X137935922Y-102640756D01*
X138004638Y-102775619D01*
X138017974Y-102801791D01*
X138124196Y-102947996D01*
X138252003Y-103075803D01*
X138388817Y-103175202D01*
X138398212Y-103182028D01*
X138559244Y-103264078D01*
X138731129Y-103319927D01*
X138895101Y-103345898D01*
X138905386Y-103347527D01*
X138968521Y-103377456D01*
X138999562Y-103427309D01*
X139034155Y-103375136D01*
X139094610Y-103347527D01*
X139268871Y-103319927D01*
X139440756Y-103264078D01*
X139601788Y-103182028D01*
X139654578Y-103143673D01*
X139681407Y-103124182D01*
X139747213Y-103100702D01*
X139754292Y-103100500D01*
X143212731Y-103100500D01*
X143212747Y-103100501D01*
X143220343Y-103100501D01*
X143378454Y-103100501D01*
X143378457Y-103100501D01*
X143531185Y-103059577D01*
X143593502Y-103023598D01*
X143593516Y-103023590D01*
X152594500Y-103023590D01*
X152594500Y-103976409D01*
X152600772Y-104056109D01*
X152648128Y-104232840D01*
X152650446Y-104241492D01*
X152737576Y-104412494D01*
X152766534Y-104448254D01*
X152858354Y-104561645D01*
X152932930Y-104622034D01*
X153007506Y-104682424D01*
X153178508Y-104769554D01*
X153363889Y-104819227D01*
X153443598Y-104825500D01*
X153443606Y-104825500D01*
X154396394Y-104825500D01*
X154396402Y-104825500D01*
X154476111Y-104819227D01*
X154661492Y-104769554D01*
X154832494Y-104682424D01*
X154981645Y-104561645D01*
X155102424Y-104412494D01*
X155168080Y-104283636D01*
X155216054Y-104232840D01*
X155283875Y-104216045D01*
X155350010Y-104238582D01*
X155378879Y-104267041D01*
X155448965Y-104363505D01*
X155596495Y-104511035D01*
X155765286Y-104633670D01*
X155836229Y-104669817D01*
X155951179Y-104728387D01*
X155951181Y-104728387D01*
X155951184Y-104728389D01*
X156057545Y-104762948D01*
X156149610Y-104792862D01*
X156355676Y-104825500D01*
X156355681Y-104825500D01*
X156564324Y-104825500D01*
X156770389Y-104792862D01*
X156832176Y-104772786D01*
X156968816Y-104728389D01*
X157154714Y-104633670D01*
X157323505Y-104511035D01*
X157471035Y-104363505D01*
X157593670Y-104194714D01*
X157619515Y-104143990D01*
X157667489Y-104093194D01*
X157735310Y-104076398D01*
X157801445Y-104098935D01*
X157840485Y-104143990D01*
X157866328Y-104194712D01*
X157945631Y-104303861D01*
X157988965Y-104363505D01*
X158136495Y-104511035D01*
X158305286Y-104633670D01*
X158376229Y-104669817D01*
X158491179Y-104728387D01*
X158491181Y-104728387D01*
X158491184Y-104728389D01*
X158597545Y-104762948D01*
X158689610Y-104792862D01*
X158895676Y-104825500D01*
X158895681Y-104825500D01*
X159104324Y-104825500D01*
X159310389Y-104792862D01*
X159372176Y-104772786D01*
X159508816Y-104728389D01*
X159694714Y-104633670D01*
X159863505Y-104511035D01*
X160011035Y-104363505D01*
X160133670Y-104194714D01*
X160228389Y-104008816D01*
X160292862Y-103810389D01*
X160306610Y-103723586D01*
X160325500Y-103604324D01*
X160325500Y-103395675D01*
X160292862Y-103189610D01*
X160238918Y-103023590D01*
X160228389Y-102991184D01*
X160228387Y-102991181D01*
X160228387Y-102991179D01*
X160133669Y-102805285D01*
X160011035Y-102636495D01*
X159863505Y-102488965D01*
X159694714Y-102366330D01*
X159508820Y-102271612D01*
X159310389Y-102207137D01*
X159104324Y-102174500D01*
X159104319Y-102174500D01*
X158895681Y-102174500D01*
X158895676Y-102174500D01*
X158689610Y-102207137D01*
X158491179Y-102271612D01*
X158305285Y-102366330D01*
X158136493Y-102488966D01*
X157988966Y-102636493D01*
X157866330Y-102805285D01*
X157840485Y-102856010D01*
X157792510Y-102906806D01*
X157724690Y-102923601D01*
X157658555Y-102901064D01*
X157619515Y-102856010D01*
X157593669Y-102805285D01*
X157471035Y-102636495D01*
X157323505Y-102488965D01*
X157154714Y-102366330D01*
X156968820Y-102271612D01*
X156770389Y-102207137D01*
X156564324Y-102174500D01*
X156564319Y-102174500D01*
X156355681Y-102174500D01*
X156355676Y-102174500D01*
X156149610Y-102207137D01*
X155951179Y-102271612D01*
X155765285Y-102366330D01*
X155596493Y-102488966D01*
X155448966Y-102636493D01*
X155378883Y-102732954D01*
X155323552Y-102775619D01*
X155253939Y-102781598D01*
X155192144Y-102748992D01*
X155168080Y-102716363D01*
X155102425Y-102587507D01*
X154981645Y-102438354D01*
X154889549Y-102363778D01*
X154832494Y-102317576D01*
X154661492Y-102230446D01*
X154661491Y-102230445D01*
X154661490Y-102230445D01*
X154476109Y-102180772D01*
X154396409Y-102174500D01*
X154396402Y-102174500D01*
X153443598Y-102174500D01*
X153443590Y-102174500D01*
X153363890Y-102180772D01*
X153178509Y-102230445D01*
X153007507Y-102317575D01*
X152858354Y-102438354D01*
X152737575Y-102587507D01*
X152650445Y-102758509D01*
X152600772Y-102943890D01*
X152594500Y-103023590D01*
X143593516Y-103023590D01*
X143668116Y-102980520D01*
X143779920Y-102868716D01*
X143779920Y-102868714D01*
X143790124Y-102858511D01*
X143790128Y-102858506D01*
X144097897Y-102550736D01*
X144159218Y-102517253D01*
X144223894Y-102520488D01*
X144243151Y-102526744D01*
X144294149Y-102543315D01*
X144511878Y-102577800D01*
X144511879Y-102577800D01*
X144732321Y-102577800D01*
X144732322Y-102577800D01*
X144950051Y-102543315D01*
X145159706Y-102475195D01*
X145356122Y-102375115D01*
X145534465Y-102245542D01*
X145690342Y-102089665D01*
X145819915Y-101911322D01*
X145919995Y-101714906D01*
X145988115Y-101505251D01*
X146022600Y-101287522D01*
X146022600Y-101067078D01*
X145988115Y-100849349D01*
X145944419Y-100714864D01*
X145919996Y-100639696D01*
X145919995Y-100639693D01*
X145852610Y-100507445D01*
X145819915Y-100443278D01*
X145770900Y-100375814D01*
X145690347Y-100264941D01*
X145690343Y-100264936D01*
X145534463Y-100109056D01*
X145534458Y-100109052D01*
X145356125Y-99979487D01*
X145356124Y-99979486D01*
X145356122Y-99979485D01*
X145293196Y-99947422D01*
X145159706Y-99879404D01*
X145159703Y-99879403D01*
X144950052Y-99811285D01*
X144841186Y-99794042D01*
X144732322Y-99776800D01*
X144511878Y-99776800D01*
X144439301Y-99788295D01*
X144294147Y-99811285D01*
X144084496Y-99879403D01*
X144084493Y-99879404D01*
X143888074Y-99979487D01*
X143709741Y-100109052D01*
X143709736Y-100109056D01*
X143659563Y-100159229D01*
X143598240Y-100192713D01*
X143528548Y-100187728D01*
X143472615Y-100145857D01*
X143455701Y-100114880D01*
X143425897Y-100034971D01*
X143425893Y-100034964D01*
X143339647Y-99919755D01*
X143339644Y-99919752D01*
X143224435Y-99833506D01*
X143224428Y-99833502D01*
X143089582Y-99783208D01*
X143089583Y-99783208D01*
X143029983Y-99776801D01*
X143029981Y-99776800D01*
X143029973Y-99776800D01*
X143029965Y-99776800D01*
X142671196Y-99776800D01*
X142604157Y-99757115D01*
X142558402Y-99704311D01*
X142548458Y-99635153D01*
X142577483Y-99571597D01*
X142583515Y-99565119D01*
X143339415Y-98809219D01*
X144097897Y-98050736D01*
X144159218Y-98017253D01*
X144223894Y-98020488D01*
X144243151Y-98026744D01*
X144294149Y-98043315D01*
X144511878Y-98077800D01*
X144511879Y-98077800D01*
X144732321Y-98077800D01*
X144732322Y-98077800D01*
X144950051Y-98043315D01*
X145159706Y-97975195D01*
X145356122Y-97875115D01*
X145534465Y-97745542D01*
X145690342Y-97589665D01*
X145819915Y-97411322D01*
X145919995Y-97214906D01*
X145988115Y-97005251D01*
X146022600Y-96787522D01*
X146022600Y-96567078D01*
X145988115Y-96349349D01*
X145953949Y-96244196D01*
X145919996Y-96139696D01*
X145919995Y-96139693D01*
X145877311Y-96055923D01*
X145819915Y-95943278D01*
X145761601Y-95863015D01*
X145690347Y-95764941D01*
X145690343Y-95764936D01*
X145534463Y-95609056D01*
X145534458Y-95609052D01*
X145356125Y-95479487D01*
X145356124Y-95479486D01*
X145356122Y-95479485D01*
X145258811Y-95429902D01*
X145159706Y-95379404D01*
X145159703Y-95379403D01*
X144950052Y-95311285D01*
X144841186Y-95294042D01*
X144732322Y-95276800D01*
X144511878Y-95276800D01*
X144439301Y-95288295D01*
X144294147Y-95311285D01*
X144084496Y-95379403D01*
X144084493Y-95379404D01*
X143888074Y-95479487D01*
X143709741Y-95609052D01*
X143709736Y-95609056D01*
X143659563Y-95659229D01*
X143598240Y-95692713D01*
X143528548Y-95687728D01*
X143472615Y-95645857D01*
X143455701Y-95614880D01*
X143425897Y-95534971D01*
X143425893Y-95534964D01*
X143339647Y-95419755D01*
X143339644Y-95419752D01*
X143224435Y-95333506D01*
X143224428Y-95333502D01*
X143089582Y-95283208D01*
X143089583Y-95283208D01*
X143029983Y-95276801D01*
X143029981Y-95276800D01*
X143029973Y-95276800D01*
X143029964Y-95276800D01*
X141134229Y-95276800D01*
X141134223Y-95276801D01*
X141074616Y-95283208D01*
X140939771Y-95333502D01*
X140939764Y-95333506D01*
X140824555Y-95419752D01*
X140824552Y-95419755D01*
X140738306Y-95534964D01*
X140738302Y-95534971D01*
X140688008Y-95669817D01*
X140681968Y-95726000D01*
X140681601Y-95729423D01*
X140681600Y-95729435D01*
X140681600Y-97625170D01*
X140681601Y-97625176D01*
X140688008Y-97684783D01*
X140738302Y-97819628D01*
X140738306Y-97819635D01*
X140824552Y-97934844D01*
X140824555Y-97934847D01*
X140939764Y-98021093D01*
X140939771Y-98021097D01*
X141074617Y-98071391D01*
X141074616Y-98071391D01*
X141081544Y-98072135D01*
X141134227Y-98077800D01*
X142073002Y-98077799D01*
X142140041Y-98097483D01*
X142185796Y-98150287D01*
X142195740Y-98219446D01*
X142166715Y-98283002D01*
X142160683Y-98289480D01*
X141426984Y-99023181D01*
X141365661Y-99056666D01*
X141339303Y-99059500D01*
X140046145Y-99059500D01*
X139979106Y-99039815D01*
X139945828Y-99008387D01*
X139875798Y-98911998D01*
X139748002Y-98784202D01*
X139747996Y-98784196D01*
X139601791Y-98677974D01*
X139601790Y-98677973D01*
X139601788Y-98677972D01*
X139440756Y-98595922D01*
X139268871Y-98540073D01*
X139268869Y-98540072D01*
X139268867Y-98540072D01*
X139155420Y-98522103D01*
X139090365Y-98511800D01*
X138909635Y-98511800D01*
X138895745Y-98514000D01*
X138731132Y-98540072D01*
X138559241Y-98595923D01*
X138398208Y-98677974D01*
X138252003Y-98784196D01*
X138124196Y-98912003D01*
X138017974Y-99058208D01*
X137935923Y-99219241D01*
X137880072Y-99391132D01*
X137851800Y-99569635D01*
X132528200Y-99569635D01*
X132499927Y-99391129D01*
X132444078Y-99219244D01*
X132362028Y-99058212D01*
X132325827Y-99008385D01*
X132255803Y-98912003D01*
X132127996Y-98784196D01*
X131981791Y-98677974D01*
X131981790Y-98677973D01*
X131981788Y-98677972D01*
X131820756Y-98595922D01*
X131648871Y-98540073D01*
X131648869Y-98540072D01*
X131648867Y-98540072D01*
X131530436Y-98521314D01*
X131474612Y-98512472D01*
X131411478Y-98482544D01*
X131374547Y-98423232D01*
X131375545Y-98353370D01*
X131414155Y-98295137D01*
X131474612Y-98267527D01*
X131648871Y-98239927D01*
X131820756Y-98184078D01*
X131981788Y-98102028D01*
X132093182Y-98021096D01*
X132127996Y-97995803D01*
X132127998Y-97995800D01*
X132128002Y-97995798D01*
X132255798Y-97868002D01*
X132255800Y-97867998D01*
X132255803Y-97867996D01*
X132344769Y-97745543D01*
X132362028Y-97721788D01*
X132444078Y-97560756D01*
X132499927Y-97388871D01*
X132528200Y-97210365D01*
X132528200Y-97029635D01*
X137851800Y-97029635D01*
X137851800Y-97210364D01*
X137878798Y-97380825D01*
X137880073Y-97388871D01*
X137935922Y-97560756D01*
X138017611Y-97721080D01*
X138017974Y-97721791D01*
X138124196Y-97867996D01*
X138252003Y-97995803D01*
X138388817Y-98095202D01*
X138398212Y-98102028D01*
X138559244Y-98184078D01*
X138731129Y-98239927D01*
X138909635Y-98268200D01*
X139090365Y-98268200D01*
X139268871Y-98239927D01*
X139440756Y-98184078D01*
X139601788Y-98102028D01*
X139713182Y-98021096D01*
X139747996Y-97995803D01*
X139747998Y-97995800D01*
X139748002Y-97995798D01*
X139875798Y-97868002D01*
X139875800Y-97867998D01*
X139875803Y-97867996D01*
X139964769Y-97745543D01*
X139982028Y-97721788D01*
X140064078Y-97560756D01*
X140119927Y-97388871D01*
X140148200Y-97210365D01*
X140148200Y-97029635D01*
X140119927Y-96851129D01*
X140064078Y-96679244D01*
X139982028Y-96518212D01*
X139975202Y-96508817D01*
X139875803Y-96372003D01*
X139747996Y-96244196D01*
X139601791Y-96137974D01*
X139601790Y-96137973D01*
X139601788Y-96137972D01*
X139440756Y-96055922D01*
X139268871Y-96000073D01*
X139268869Y-96000072D01*
X139268867Y-96000072D01*
X139102659Y-95973747D01*
X139102658Y-95973747D01*
X139090365Y-95971800D01*
X138909635Y-95971800D01*
X138897342Y-95973747D01*
X138897340Y-95973747D01*
X138731132Y-96000072D01*
X138559241Y-96055923D01*
X138398208Y-96137974D01*
X138252003Y-96244196D01*
X138124196Y-96372003D01*
X138017974Y-96518208D01*
X137935923Y-96679241D01*
X137880072Y-96851132D01*
X137851800Y-97029635D01*
X132528200Y-97029635D01*
X132499927Y-96851129D01*
X132444078Y-96679244D01*
X132362028Y-96518212D01*
X132355202Y-96508817D01*
X132255803Y-96372003D01*
X132127996Y-96244196D01*
X131981791Y-96137974D01*
X131981790Y-96137973D01*
X131981788Y-96137972D01*
X131820756Y-96055922D01*
X131648871Y-96000073D01*
X131648869Y-96000072D01*
X131648867Y-96000072D01*
X131535420Y-95982103D01*
X131470365Y-95971800D01*
X131289635Y-95971800D01*
X131275745Y-95974000D01*
X131111132Y-96000072D01*
X130939241Y-96055923D01*
X130778208Y-96137974D01*
X130632003Y-96244196D01*
X130504196Y-96372003D01*
X130397974Y-96518208D01*
X130315923Y-96679239D01*
X130264530Y-96837411D01*
X130225092Y-96895086D01*
X130160733Y-96922284D01*
X130091887Y-96910369D01*
X130040411Y-96863125D01*
X130022599Y-96799094D01*
X130022599Y-95729428D01*
X130016191Y-95669817D01*
X130006590Y-95644076D01*
X129965897Y-95534971D01*
X129965893Y-95534964D01*
X129879648Y-95419756D01*
X129879646Y-95419755D01*
X129879646Y-95419754D01*
X129858287Y-95403765D01*
X129816418Y-95347833D01*
X129811434Y-95278142D01*
X129844919Y-95216819D01*
X129906242Y-95183334D01*
X129932600Y-95180500D01*
X130333855Y-95180500D01*
X130400894Y-95200185D01*
X130434171Y-95231612D01*
X130504198Y-95327996D01*
X130504202Y-95328002D01*
X130632003Y-95455803D01*
X130717038Y-95517583D01*
X130778212Y-95562028D01*
X130939244Y-95644078D01*
X131111129Y-95699927D01*
X131289635Y-95728200D01*
X131470365Y-95728200D01*
X131648871Y-95699927D01*
X131820756Y-95644078D01*
X131981788Y-95562028D01*
X132071373Y-95496941D01*
X132127996Y-95455803D01*
X132127998Y-95455800D01*
X132128002Y-95455798D01*
X132255798Y-95328002D01*
X132255800Y-95327998D01*
X132255803Y-95327996D01*
X132310968Y-95252067D01*
X132362028Y-95181788D01*
X132444078Y-95020756D01*
X132499927Y-94848871D01*
X132528200Y-94670365D01*
X132528200Y-94489668D01*
X137852300Y-94489668D01*
X137852300Y-94670331D01*
X137880559Y-94848750D01*
X137936386Y-95020566D01*
X138018401Y-95181529D01*
X138029558Y-95196886D01*
X138029559Y-95196886D01*
X138606300Y-94620145D01*
X138606300Y-94631832D01*
X138633130Y-94731962D01*
X138684962Y-94821737D01*
X138758263Y-94895038D01*
X138848038Y-94946870D01*
X138948168Y-94973700D01*
X138959853Y-94973700D01*
X138383112Y-95550438D01*
X138383112Y-95550439D01*
X138398477Y-95561602D01*
X138559433Y-95643613D01*
X138731249Y-95699440D01*
X138897340Y-95725747D01*
X139102659Y-95725747D01*
X139268750Y-95699440D01*
X139440566Y-95643613D01*
X139601528Y-95561599D01*
X139601532Y-95561597D01*
X139616886Y-95550440D01*
X139616887Y-95550439D01*
X139040148Y-94973700D01*
X139051832Y-94973700D01*
X139151962Y-94946870D01*
X139241737Y-94895038D01*
X139315038Y-94821737D01*
X139366870Y-94731962D01*
X139393700Y-94631832D01*
X139393700Y-94620147D01*
X139970439Y-95196887D01*
X139970440Y-95196886D01*
X139981597Y-95181532D01*
X139981599Y-95181528D01*
X140063613Y-95020566D01*
X140119440Y-94848750D01*
X140147700Y-94670331D01*
X140147700Y-94489668D01*
X140119440Y-94311249D01*
X140063613Y-94139433D01*
X139981602Y-93978477D01*
X139970439Y-93963112D01*
X139970438Y-93963112D01*
X139393700Y-94539851D01*
X139393700Y-94528168D01*
X139366870Y-94428038D01*
X139315038Y-94338263D01*
X139241737Y-94264962D01*
X139151962Y-94213130D01*
X139051832Y-94186300D01*
X139040147Y-94186300D01*
X139616886Y-93609559D01*
X139616886Y-93609558D01*
X139601529Y-93598401D01*
X139440566Y-93516386D01*
X139268750Y-93460559D01*
X139268752Y-93460559D01*
X139102658Y-93434252D01*
X138897341Y-93434252D01*
X138731248Y-93460559D01*
X138559433Y-93516386D01*
X138398476Y-93598397D01*
X138398472Y-93598400D01*
X138383112Y-93609558D01*
X138383112Y-93609559D01*
X138959854Y-94186300D01*
X138948168Y-94186300D01*
X138848038Y-94213130D01*
X138758263Y-94264962D01*
X138684962Y-94338263D01*
X138633130Y-94428038D01*
X138606300Y-94528168D01*
X138606300Y-94539853D01*
X138029559Y-93963112D01*
X138029558Y-93963112D01*
X138018400Y-93978472D01*
X138018397Y-93978476D01*
X137936386Y-94139433D01*
X137880559Y-94311249D01*
X137852300Y-94489668D01*
X132528200Y-94489668D01*
X132528200Y-94489635D01*
X132499927Y-94311129D01*
X132444078Y-94139244D01*
X132362028Y-93978212D01*
X132336577Y-93943181D01*
X132255803Y-93832003D01*
X132127996Y-93704196D01*
X131981791Y-93597974D01*
X131981790Y-93597973D01*
X131981788Y-93597972D01*
X131820756Y-93515922D01*
X131648871Y-93460073D01*
X131648869Y-93460072D01*
X131648867Y-93460072D01*
X131535420Y-93442103D01*
X131470365Y-93431800D01*
X131289635Y-93431800D01*
X131275745Y-93434000D01*
X131111132Y-93460072D01*
X130939241Y-93515923D01*
X130778208Y-93597974D01*
X130632003Y-93704196D01*
X130504202Y-93831997D01*
X130504198Y-93832003D01*
X130434172Y-93928386D01*
X130378844Y-93971051D01*
X130333855Y-93979500D01*
X128784897Y-93979500D01*
X128755456Y-93970855D01*
X128725470Y-93964332D01*
X128720454Y-93960577D01*
X128717858Y-93959815D01*
X128697216Y-93943181D01*
X128543515Y-93789480D01*
X128510030Y-93728157D01*
X128515014Y-93658465D01*
X128556886Y-93602532D01*
X128622350Y-93578115D01*
X128631196Y-93577799D01*
X129569971Y-93577799D01*
X129569972Y-93577799D01*
X129629583Y-93571391D01*
X129764431Y-93521096D01*
X129879646Y-93434846D01*
X129965896Y-93319631D01*
X130016191Y-93184783D01*
X130022600Y-93125173D01*
X130022599Y-92360904D01*
X130027132Y-92345466D01*
X130026673Y-92329383D01*
X130036772Y-92312634D01*
X130042283Y-92293867D01*
X130054443Y-92283329D01*
X130062753Y-92269550D01*
X130080306Y-92260919D01*
X130095087Y-92248112D01*
X130111013Y-92245822D01*
X130125454Y-92238722D01*
X130144885Y-92240951D01*
X130164246Y-92238168D01*
X130178883Y-92244852D01*
X130194868Y-92246687D01*
X130210007Y-92259066D01*
X130227802Y-92267193D01*
X130237104Y-92281223D01*
X130248957Y-92290915D01*
X130264529Y-92322587D01*
X130315922Y-92480756D01*
X130339241Y-92526523D01*
X130397974Y-92641791D01*
X130504196Y-92787996D01*
X130632003Y-92915803D01*
X130768817Y-93015202D01*
X130778212Y-93022028D01*
X130939244Y-93104078D01*
X131111129Y-93159927D01*
X131289635Y-93188200D01*
X131470365Y-93188200D01*
X131648871Y-93159927D01*
X131820756Y-93104078D01*
X131981788Y-93022028D01*
X132063879Y-92962385D01*
X132127996Y-92915803D01*
X132127998Y-92915800D01*
X132128002Y-92915798D01*
X132255798Y-92788002D01*
X132255800Y-92787998D01*
X132255803Y-92787996D01*
X132313261Y-92708910D01*
X132362028Y-92641788D01*
X132444078Y-92480756D01*
X132499927Y-92308871D01*
X132528200Y-92130365D01*
X132528200Y-91949635D01*
X137851800Y-91949635D01*
X137851800Y-92130364D01*
X137877696Y-92293867D01*
X137880073Y-92308871D01*
X137935922Y-92480756D01*
X137959241Y-92526523D01*
X138017974Y-92641791D01*
X138124196Y-92787996D01*
X138252003Y-92915803D01*
X138388817Y-93015202D01*
X138398212Y-93022028D01*
X138559244Y-93104078D01*
X138731129Y-93159927D01*
X138909635Y-93188200D01*
X139090365Y-93188200D01*
X139268871Y-93159927D01*
X139440756Y-93104078D01*
X139601788Y-93022028D01*
X139683879Y-92962385D01*
X139747996Y-92915803D01*
X139747998Y-92915800D01*
X139748002Y-92915798D01*
X139875798Y-92788002D01*
X139875800Y-92787998D01*
X139875803Y-92787996D01*
X139933261Y-92708910D01*
X139982028Y-92641788D01*
X140064078Y-92480756D01*
X140119927Y-92308871D01*
X140148200Y-92130365D01*
X140148200Y-91949635D01*
X140119927Y-91771129D01*
X140064078Y-91599244D01*
X139982028Y-91438212D01*
X139973890Y-91427011D01*
X139875803Y-91292003D01*
X139747996Y-91164196D01*
X139601791Y-91057974D01*
X139601790Y-91057973D01*
X139601788Y-91057972D01*
X139440756Y-90975922D01*
X139268871Y-90920073D01*
X139268869Y-90920072D01*
X139268867Y-90920072D01*
X139102659Y-90893747D01*
X139102658Y-90893747D01*
X139090365Y-90891800D01*
X138909635Y-90891800D01*
X138897342Y-90893747D01*
X138897340Y-90893747D01*
X138731132Y-90920072D01*
X138559241Y-90975923D01*
X138398208Y-91057974D01*
X138252003Y-91164196D01*
X138124196Y-91292003D01*
X138017974Y-91438208D01*
X137935923Y-91599241D01*
X137880072Y-91771132D01*
X137851800Y-91949635D01*
X132528200Y-91949635D01*
X132499927Y-91771129D01*
X132444078Y-91599244D01*
X132362028Y-91438212D01*
X132353890Y-91427011D01*
X132255803Y-91292003D01*
X132127996Y-91164196D01*
X131981791Y-91057974D01*
X131981790Y-91057973D01*
X131981788Y-91057972D01*
X131820756Y-90975922D01*
X131648871Y-90920073D01*
X131648869Y-90920072D01*
X131648867Y-90920072D01*
X131530436Y-90901314D01*
X131474612Y-90892472D01*
X131411478Y-90862544D01*
X131374547Y-90803232D01*
X131375545Y-90733370D01*
X131414155Y-90675137D01*
X131474612Y-90647527D01*
X131648871Y-90619927D01*
X131820756Y-90564078D01*
X131981788Y-90482028D01*
X132063879Y-90422385D01*
X132127996Y-90375803D01*
X132127998Y-90375800D01*
X132128002Y-90375798D01*
X132255798Y-90248002D01*
X132255800Y-90247998D01*
X132255803Y-90247996D01*
X132329809Y-90146134D01*
X132362028Y-90101788D01*
X132444078Y-89940756D01*
X132499927Y-89768871D01*
X132528200Y-89590365D01*
X132528200Y-89409668D01*
X137852300Y-89409668D01*
X137852300Y-89590331D01*
X137880559Y-89768750D01*
X137936386Y-89940566D01*
X138018401Y-90101529D01*
X138029558Y-90116886D01*
X138029559Y-90116886D01*
X138606300Y-89540145D01*
X138606300Y-89551832D01*
X138633130Y-89651962D01*
X138684962Y-89741737D01*
X138758263Y-89815038D01*
X138848038Y-89866870D01*
X138948168Y-89893700D01*
X138959853Y-89893700D01*
X138383112Y-90470438D01*
X138383112Y-90470439D01*
X138398477Y-90481602D01*
X138559433Y-90563613D01*
X138731249Y-90619440D01*
X138897340Y-90645747D01*
X139102659Y-90645747D01*
X139268750Y-90619440D01*
X139440566Y-90563613D01*
X139601528Y-90481599D01*
X139601532Y-90481597D01*
X139616886Y-90470440D01*
X139616887Y-90470439D01*
X139040148Y-89893700D01*
X139051832Y-89893700D01*
X139151962Y-89866870D01*
X139241737Y-89815038D01*
X139315038Y-89741737D01*
X139366870Y-89651962D01*
X139393700Y-89551832D01*
X139393700Y-89540147D01*
X139970439Y-90116887D01*
X139970440Y-90116886D01*
X139981597Y-90101532D01*
X139981599Y-90101528D01*
X140063613Y-89940566D01*
X140119440Y-89768750D01*
X140147700Y-89590331D01*
X140147700Y-89409668D01*
X140119440Y-89231249D01*
X140063613Y-89059433D01*
X139981602Y-88898477D01*
X139970439Y-88883112D01*
X139393700Y-89459851D01*
X139393700Y-89448168D01*
X139366870Y-89348038D01*
X139315038Y-89258263D01*
X139241737Y-89184962D01*
X139151962Y-89133130D01*
X139051832Y-89106300D01*
X139040147Y-89106300D01*
X139616886Y-88529559D01*
X139616886Y-88529558D01*
X139601529Y-88518401D01*
X139440566Y-88436386D01*
X139268750Y-88380559D01*
X139268752Y-88380559D01*
X139102658Y-88354252D01*
X138897341Y-88354252D01*
X138731248Y-88380559D01*
X138559433Y-88436386D01*
X138398476Y-88518397D01*
X138398472Y-88518400D01*
X138383112Y-88529558D01*
X138383112Y-88529559D01*
X138959854Y-89106300D01*
X138948168Y-89106300D01*
X138848038Y-89133130D01*
X138758263Y-89184962D01*
X138684962Y-89258263D01*
X138633130Y-89348038D01*
X138606300Y-89448168D01*
X138606300Y-89459853D01*
X138029559Y-88883112D01*
X138029558Y-88883112D01*
X138018400Y-88898472D01*
X138018397Y-88898476D01*
X137936386Y-89059433D01*
X137880559Y-89231249D01*
X137852300Y-89409668D01*
X132528200Y-89409668D01*
X132528200Y-89409635D01*
X132499927Y-89231129D01*
X132444078Y-89059244D01*
X132362028Y-88898212D01*
X132335199Y-88861285D01*
X132255803Y-88752003D01*
X132127996Y-88624196D01*
X131981791Y-88517974D01*
X131981790Y-88517973D01*
X131981788Y-88517972D01*
X131820756Y-88435922D01*
X131648871Y-88380073D01*
X131648869Y-88380072D01*
X131648867Y-88380072D01*
X131530478Y-88361321D01*
X131488496Y-88354671D01*
X131425362Y-88324743D01*
X131388431Y-88265431D01*
X131389429Y-88195569D01*
X131428039Y-88137336D01*
X131492002Y-88109222D01*
X131507895Y-88108199D01*
X132075571Y-88108199D01*
X132075572Y-88108199D01*
X132135183Y-88101791D01*
X132270031Y-88051496D01*
X132385246Y-87965246D01*
X132471496Y-87850031D01*
X132521791Y-87715183D01*
X132522563Y-87708002D01*
X132528199Y-87655586D01*
X132528199Y-87655582D01*
X132528200Y-87655573D01*
X132528199Y-87615986D01*
X132531580Y-87604471D01*
X132530439Y-87592521D01*
X132541241Y-87571565D01*
X132547882Y-87548949D01*
X132557753Y-87539536D01*
X132562454Y-87530418D01*
X132590195Y-87508601D01*
X132638833Y-87480520D01*
X132708116Y-87440520D01*
X132819920Y-87328716D01*
X132819920Y-87328714D01*
X132830124Y-87318511D01*
X132830128Y-87318506D01*
X136009921Y-84138712D01*
X136071242Y-84105229D01*
X136140934Y-84110213D01*
X136196867Y-84152085D01*
X136221284Y-84217549D01*
X136221600Y-84226395D01*
X136221600Y-85165170D01*
X136221601Y-85165176D01*
X136228008Y-85224783D01*
X136278302Y-85359628D01*
X136278306Y-85359635D01*
X136364552Y-85474844D01*
X136364555Y-85474847D01*
X136479764Y-85561093D01*
X136479771Y-85561097D01*
X136614617Y-85611391D01*
X136614616Y-85611391D01*
X136620793Y-85612055D01*
X136674227Y-85617800D01*
X138122002Y-85617799D01*
X138151442Y-85626443D01*
X138181429Y-85632967D01*
X138186444Y-85636721D01*
X138189041Y-85637484D01*
X138209683Y-85654118D01*
X138373929Y-85818364D01*
X138407414Y-85879687D01*
X138402430Y-85949379D01*
X138360558Y-86005312D01*
X138359133Y-86006363D01*
X138252004Y-86084196D01*
X138251999Y-86084200D01*
X138124196Y-86212003D01*
X138017974Y-86358208D01*
X137935923Y-86519241D01*
X137880072Y-86691132D01*
X137864796Y-86787583D01*
X137851800Y-86869635D01*
X137851800Y-87050365D01*
X137856345Y-87079058D01*
X137865948Y-87139694D01*
X137880073Y-87228871D01*
X137935922Y-87400756D01*
X138011430Y-87548949D01*
X138017974Y-87561791D01*
X138124196Y-87707996D01*
X138252003Y-87835803D01*
X138388817Y-87935202D01*
X138398212Y-87942028D01*
X138559244Y-88024078D01*
X138731129Y-88079927D01*
X138909635Y-88108200D01*
X139090365Y-88108200D01*
X139268871Y-88079927D01*
X139440756Y-88024078D01*
X139601788Y-87942028D01*
X139683879Y-87882385D01*
X139747996Y-87835803D01*
X139747998Y-87835800D01*
X139748002Y-87835798D01*
X139875798Y-87708002D01*
X139953636Y-87600865D01*
X140008965Y-87558200D01*
X140078578Y-87552220D01*
X140140373Y-87584826D01*
X140141635Y-87586070D01*
X143599647Y-91044082D01*
X143633132Y-91105405D01*
X143628148Y-91175097D01*
X143612285Y-91204648D01*
X143509812Y-91345690D01*
X143416881Y-91528076D01*
X143353622Y-91722765D01*
X143321600Y-91924948D01*
X143321600Y-92129651D01*
X143353622Y-92331834D01*
X143416881Y-92526523D01*
X143509815Y-92708913D01*
X143630128Y-92874513D01*
X143774886Y-93019271D01*
X143920638Y-93125164D01*
X143940490Y-93139587D01*
X144056707Y-93198803D01*
X144122876Y-93232518D01*
X144122878Y-93232518D01*
X144122881Y-93232520D01*
X144227237Y-93266427D01*
X144317565Y-93295777D01*
X144418657Y-93311788D01*
X144519748Y-93327800D01*
X144519749Y-93327800D01*
X144724451Y-93327800D01*
X144724452Y-93327800D01*
X144926634Y-93295777D01*
X145121319Y-93232520D01*
X145303710Y-93139587D01*
X145440781Y-93040000D01*
X145469313Y-93019271D01*
X145469315Y-93019268D01*
X145469319Y-93019266D01*
X145614066Y-92874519D01*
X145614068Y-92874515D01*
X145614071Y-92874513D01*
X145676928Y-92787996D01*
X145734387Y-92708910D01*
X145827320Y-92526519D01*
X145890577Y-92331834D01*
X145922600Y-92129652D01*
X145922600Y-91924948D01*
X145898237Y-91771129D01*
X145890577Y-91722765D01*
X145827318Y-91528076D01*
X145793603Y-91461907D01*
X145734387Y-91345690D01*
X145726656Y-91335049D01*
X145614071Y-91180086D01*
X145469313Y-91035328D01*
X145303713Y-90915015D01*
X145303712Y-90915014D01*
X145303710Y-90915013D01*
X145245276Y-90885239D01*
X145121319Y-90822079D01*
X145082669Y-90809521D01*
X145071269Y-90802535D01*
X145061563Y-90800424D01*
X145033312Y-90779275D01*
X145033309Y-90779273D01*
X145024016Y-90769980D01*
X144990816Y-90736780D01*
X144990813Y-90736778D01*
X139058918Y-84804883D01*
X139025433Y-84743560D01*
X139022599Y-84717202D01*
X139022599Y-84304982D01*
X143322100Y-84304982D01*
X143322100Y-84509617D01*
X143354109Y-84711717D01*
X143417344Y-84906331D01*
X143510241Y-85088650D01*
X143510247Y-85088659D01*
X143542623Y-85133221D01*
X143542624Y-85133222D01*
X144222100Y-84453746D01*
X144222100Y-84459961D01*
X144249359Y-84561694D01*
X144302020Y-84652906D01*
X144376494Y-84727380D01*
X144467706Y-84780041D01*
X144569439Y-84807300D01*
X144575653Y-84807300D01*
X143896176Y-85486774D01*
X143940750Y-85519159D01*
X144123068Y-85612055D01*
X144317682Y-85675290D01*
X144519783Y-85707300D01*
X144724417Y-85707300D01*
X144926517Y-85675290D01*
X145121131Y-85612055D01*
X145303449Y-85519159D01*
X145348021Y-85486774D01*
X145348022Y-85486774D01*
X145325965Y-85464717D01*
X145243150Y-85381902D01*
X148999500Y-85381902D01*
X148999500Y-85618097D01*
X149036446Y-85851368D01*
X149109433Y-86075996D01*
X149207260Y-86267990D01*
X149216657Y-86286433D01*
X149355483Y-86477510D01*
X149522490Y-86644517D01*
X149713567Y-86783343D01*
X149812991Y-86834002D01*
X149924003Y-86890566D01*
X149924005Y-86890566D01*
X149924008Y-86890568D01*
X150044412Y-86929689D01*
X150148631Y-86963553D01*
X150381903Y-87000500D01*
X150381908Y-87000500D01*
X150618096Y-87000500D01*
X150684026Y-86990057D01*
X150756103Y-86978641D01*
X150825395Y-86987595D01*
X150878847Y-87032591D01*
X150899487Y-87099342D01*
X150899500Y-87101114D01*
X150899500Y-97033330D01*
X150899499Y-97033348D01*
X150899499Y-97199054D01*
X150899498Y-97199054D01*
X150931474Y-97318390D01*
X150940423Y-97351785D01*
X150957191Y-97380828D01*
X150957192Y-97380830D01*
X150957193Y-97380830D01*
X151019479Y-97488714D01*
X151019481Y-97488717D01*
X151138349Y-97607585D01*
X151138355Y-97607590D01*
X151395922Y-97865157D01*
X151429407Y-97926480D01*
X151426173Y-97991155D01*
X151421522Y-98005468D01*
X151389500Y-98207648D01*
X151389500Y-98412351D01*
X151421522Y-98614534D01*
X151484781Y-98809223D01*
X151577715Y-98991613D01*
X151698028Y-99157213D01*
X151842786Y-99301971D01*
X151965504Y-99391129D01*
X152008390Y-99422287D01*
X152124607Y-99481503D01*
X152190776Y-99515218D01*
X152190778Y-99515218D01*
X152190781Y-99515220D01*
X152295137Y-99549127D01*
X152385465Y-99578477D01*
X152486557Y-99594488D01*
X152587648Y-99610500D01*
X152587649Y-99610500D01*
X152792351Y-99610500D01*
X152792352Y-99610500D01*
X152994534Y-99578477D01*
X153189219Y-99515220D01*
X153371610Y-99422287D01*
X153464590Y-99354732D01*
X153537213Y-99301971D01*
X153537215Y-99301968D01*
X153537219Y-99301966D01*
X153681966Y-99157219D01*
X153681968Y-99157215D01*
X153681971Y-99157213D01*
X153802284Y-98991614D01*
X153802285Y-98991613D01*
X153802287Y-98991610D01*
X153849516Y-98898917D01*
X153897489Y-98848123D01*
X153965310Y-98831328D01*
X154031445Y-98853865D01*
X154070483Y-98898917D01*
X154093046Y-98943198D01*
X154117715Y-98991614D01*
X154238028Y-99157213D01*
X154382786Y-99301971D01*
X154505504Y-99391129D01*
X154548390Y-99422287D01*
X154664607Y-99481503D01*
X154730776Y-99515218D01*
X154730778Y-99515218D01*
X154730781Y-99515220D01*
X154835137Y-99549127D01*
X154925465Y-99578477D01*
X155026557Y-99594488D01*
X155127648Y-99610500D01*
X155127649Y-99610500D01*
X155332351Y-99610500D01*
X155332352Y-99610500D01*
X155534534Y-99578477D01*
X155729219Y-99515220D01*
X155911610Y-99422287D01*
X156004590Y-99354732D01*
X156077213Y-99301971D01*
X156077215Y-99301968D01*
X156077219Y-99301966D01*
X156221966Y-99157219D01*
X156221968Y-99157215D01*
X156221971Y-99157213D01*
X156342284Y-98991614D01*
X156342285Y-98991613D01*
X156342287Y-98991610D01*
X156389516Y-98898917D01*
X156437489Y-98848123D01*
X156505310Y-98831328D01*
X156571445Y-98853865D01*
X156610483Y-98898917D01*
X156633046Y-98943198D01*
X156657715Y-98991614D01*
X156778028Y-99157213D01*
X156922786Y-99301971D01*
X157045504Y-99391129D01*
X157088390Y-99422287D01*
X157204607Y-99481503D01*
X157270776Y-99515218D01*
X157270778Y-99515218D01*
X157270781Y-99515220D01*
X157375137Y-99549127D01*
X157465465Y-99578477D01*
X157566557Y-99594488D01*
X157667648Y-99610500D01*
X157667649Y-99610500D01*
X157872351Y-99610500D01*
X157872352Y-99610500D01*
X158074534Y-99578477D01*
X158269219Y-99515220D01*
X158451610Y-99422287D01*
X158544590Y-99354732D01*
X158617213Y-99301971D01*
X158617215Y-99301968D01*
X158617219Y-99301966D01*
X158761966Y-99157219D01*
X158761968Y-99157215D01*
X158761971Y-99157213D01*
X158882284Y-98991614D01*
X158882285Y-98991613D01*
X158882287Y-98991610D01*
X158929516Y-98898917D01*
X158977489Y-98848123D01*
X159045310Y-98831328D01*
X159111445Y-98853865D01*
X159150483Y-98898917D01*
X159173046Y-98943198D01*
X159197715Y-98991614D01*
X159318028Y-99157213D01*
X159462786Y-99301971D01*
X159585504Y-99391129D01*
X159628390Y-99422287D01*
X159744607Y-99481503D01*
X159810776Y-99515218D01*
X159810778Y-99515218D01*
X159810781Y-99515220D01*
X159915137Y-99549127D01*
X160005465Y-99578477D01*
X160106557Y-99594488D01*
X160207648Y-99610500D01*
X160207649Y-99610500D01*
X160412351Y-99610500D01*
X160412352Y-99610500D01*
X160614534Y-99578477D01*
X160809219Y-99515220D01*
X160991610Y-99422287D01*
X161084590Y-99354732D01*
X161157213Y-99301971D01*
X161157215Y-99301968D01*
X161157219Y-99301966D01*
X161301966Y-99157219D01*
X161301968Y-99157215D01*
X161301971Y-99157213D01*
X161387264Y-99039815D01*
X161422287Y-98991610D01*
X161515220Y-98809219D01*
X161578477Y-98614534D01*
X161610500Y-98412352D01*
X161610500Y-98207648D01*
X161601415Y-98150287D01*
X161578477Y-98005465D01*
X161555531Y-97934846D01*
X161543445Y-97897648D01*
X164699500Y-97897648D01*
X164699500Y-98102351D01*
X164731522Y-98304534D01*
X164794781Y-98499223D01*
X164847048Y-98601801D01*
X164885860Y-98677974D01*
X164887715Y-98681613D01*
X165008028Y-98847213D01*
X165152786Y-98991971D01*
X165245734Y-99059500D01*
X165318390Y-99112287D01*
X165406574Y-99157219D01*
X165500776Y-99205218D01*
X165500778Y-99205218D01*
X165500781Y-99205220D01*
X165605137Y-99239127D01*
X165695465Y-99268477D01*
X165796557Y-99284488D01*
X165897648Y-99300500D01*
X165897649Y-99300500D01*
X166102351Y-99300500D01*
X166102352Y-99300500D01*
X166304534Y-99268477D01*
X166499219Y-99205220D01*
X166681610Y-99112287D01*
X166804255Y-99023181D01*
X166847213Y-98991971D01*
X166847215Y-98991968D01*
X166847219Y-98991966D01*
X166991966Y-98847219D01*
X166991968Y-98847215D01*
X166991971Y-98847213D01*
X167044732Y-98774590D01*
X167112287Y-98681610D01*
X167205220Y-98499219D01*
X167268477Y-98304534D01*
X167300500Y-98102352D01*
X167300500Y-97897648D01*
X167286741Y-97810778D01*
X167268477Y-97695465D01*
X167234100Y-97589665D01*
X167205220Y-97500781D01*
X167205218Y-97500778D01*
X167205218Y-97500776D01*
X167148197Y-97388867D01*
X167112287Y-97318390D01*
X167104556Y-97307749D01*
X166991971Y-97152786D01*
X166847213Y-97008028D01*
X166681613Y-96887715D01*
X166681612Y-96887714D01*
X166681610Y-96887713D01*
X166600256Y-96846261D01*
X166499223Y-96794781D01*
X166304534Y-96731522D01*
X166129995Y-96703878D01*
X166102352Y-96699500D01*
X165897648Y-96699500D01*
X165873329Y-96703351D01*
X165695465Y-96731522D01*
X165500776Y-96794781D01*
X165318386Y-96887715D01*
X165152786Y-97008028D01*
X165008028Y-97152786D01*
X164887715Y-97318386D01*
X164794781Y-97500776D01*
X164731522Y-97695465D01*
X164699500Y-97897648D01*
X161543445Y-97897648D01*
X161515220Y-97810781D01*
X161422287Y-97628390D01*
X161402039Y-97600521D01*
X161301971Y-97462786D01*
X161157213Y-97318028D01*
X160991613Y-97197715D01*
X160991612Y-97197714D01*
X160991610Y-97197713D01*
X160903436Y-97152786D01*
X160809223Y-97104781D01*
X160614534Y-97041522D01*
X160439995Y-97013878D01*
X160412352Y-97009500D01*
X160207648Y-97009500D01*
X160183329Y-97013351D01*
X160005465Y-97041522D01*
X159810776Y-97104781D01*
X159628386Y-97197715D01*
X159462786Y-97318028D01*
X159318028Y-97462786D01*
X159197715Y-97628386D01*
X159150485Y-97721080D01*
X159102510Y-97771876D01*
X159034689Y-97788671D01*
X158968554Y-97766134D01*
X158929515Y-97721080D01*
X158916463Y-97695465D01*
X158882287Y-97628390D01*
X158862039Y-97600521D01*
X158761971Y-97462786D01*
X158617213Y-97318028D01*
X158451613Y-97197715D01*
X158451612Y-97197714D01*
X158451610Y-97197713D01*
X158363436Y-97152786D01*
X158269223Y-97104781D01*
X158074534Y-97041522D01*
X157899995Y-97013878D01*
X157872352Y-97009500D01*
X157667648Y-97009500D01*
X157654952Y-97011510D01*
X157585660Y-97002554D01*
X157532209Y-96957557D01*
X157511571Y-96890805D01*
X157530297Y-96823492D01*
X157547873Y-96801360D01*
X158128506Y-96220728D01*
X158128511Y-96220724D01*
X158138714Y-96210520D01*
X158138716Y-96210520D01*
X158250520Y-96098716D01*
X158329577Y-95961784D01*
X158370500Y-95809057D01*
X158370500Y-91919601D01*
X158390185Y-91852562D01*
X158438206Y-91809116D01*
X158451610Y-91802287D01*
X158617219Y-91681966D01*
X158761966Y-91537219D01*
X158830383Y-91443050D01*
X158885712Y-91400385D01*
X158955325Y-91394406D01*
X159017121Y-91427011D01*
X159048407Y-91476932D01*
X159075641Y-91559119D01*
X159075643Y-91559124D01*
X159167684Y-91708345D01*
X159291654Y-91832315D01*
X159440875Y-91924356D01*
X159440880Y-91924358D01*
X159607302Y-91979505D01*
X159607309Y-91979506D01*
X159710019Y-91989999D01*
X160059999Y-91989999D01*
X160060000Y-91989998D01*
X160060000Y-91005686D01*
X160064394Y-91010080D01*
X160155606Y-91062741D01*
X160257339Y-91090000D01*
X160362661Y-91090000D01*
X160464394Y-91062741D01*
X160555606Y-91010080D01*
X160560000Y-91005686D01*
X160560000Y-91989999D01*
X160909972Y-91989999D01*
X160909986Y-91989998D01*
X161012697Y-91979505D01*
X161179119Y-91924358D01*
X161179124Y-91924356D01*
X161328345Y-91832315D01*
X161452315Y-91708345D01*
X161544356Y-91559124D01*
X161544358Y-91559119D01*
X161599505Y-91392697D01*
X161599506Y-91392690D01*
X161609999Y-91289986D01*
X161610000Y-91289973D01*
X161610000Y-90940000D01*
X160625686Y-90940000D01*
X160630080Y-90935606D01*
X160682741Y-90844394D01*
X160710000Y-90742661D01*
X160710000Y-90637339D01*
X160682741Y-90535606D01*
X160630080Y-90444394D01*
X160625686Y-90440000D01*
X161609999Y-90440000D01*
X161609999Y-90102135D01*
X164649500Y-90102135D01*
X164649500Y-91897870D01*
X164649501Y-91897876D01*
X164655908Y-91957483D01*
X164706202Y-92092328D01*
X164706206Y-92092335D01*
X164792452Y-92207544D01*
X164792455Y-92207547D01*
X164907664Y-92293793D01*
X164907671Y-92293797D01*
X164907859Y-92293867D01*
X165042517Y-92344091D01*
X165102127Y-92350500D01*
X165112685Y-92350499D01*
X165179723Y-92370179D01*
X165200372Y-92386818D01*
X165870591Y-93057037D01*
X165807007Y-93074075D01*
X165692993Y-93139901D01*
X165599901Y-93232993D01*
X165534075Y-93347007D01*
X165517037Y-93410591D01*
X164884728Y-92778282D01*
X164884727Y-92778282D01*
X164845380Y-92832439D01*
X164748904Y-93021782D01*
X164683242Y-93223869D01*
X164683242Y-93223872D01*
X164650000Y-93433753D01*
X164650000Y-93646246D01*
X164683242Y-93856127D01*
X164683242Y-93856130D01*
X164748904Y-94058217D01*
X164845375Y-94247550D01*
X164884728Y-94301716D01*
X165517036Y-93669407D01*
X165534075Y-93732993D01*
X165599901Y-93847007D01*
X165692993Y-93940099D01*
X165807007Y-94005925D01*
X165870590Y-94022962D01*
X165238282Y-94655269D01*
X165238282Y-94655270D01*
X165292449Y-94694624D01*
X165481782Y-94791095D01*
X165683870Y-94856757D01*
X165893754Y-94890000D01*
X166106246Y-94890000D01*
X166316127Y-94856757D01*
X166316130Y-94856757D01*
X166518217Y-94791095D01*
X166707554Y-94694622D01*
X166761716Y-94655270D01*
X166761717Y-94655270D01*
X166129408Y-94022962D01*
X166192993Y-94005925D01*
X166307007Y-93940099D01*
X166400099Y-93847007D01*
X166465925Y-93732993D01*
X166482962Y-93669408D01*
X167115270Y-94301717D01*
X167115270Y-94301716D01*
X167154622Y-94247554D01*
X167251095Y-94058217D01*
X167316757Y-93856130D01*
X167316757Y-93856127D01*
X167350000Y-93646246D01*
X167350000Y-93433753D01*
X167316757Y-93223872D01*
X167316757Y-93223869D01*
X167251095Y-93021782D01*
X167154624Y-92832449D01*
X167115270Y-92778282D01*
X167115269Y-92778282D01*
X166482962Y-93410590D01*
X166465925Y-93347007D01*
X166400099Y-93232993D01*
X166307007Y-93139901D01*
X166192993Y-93074075D01*
X166129409Y-93057037D01*
X166799627Y-92386818D01*
X166860950Y-92353333D01*
X166887307Y-92350499D01*
X166897872Y-92350499D01*
X166957483Y-92344091D01*
X167092331Y-92293796D01*
X167207546Y-92207546D01*
X167293796Y-92092331D01*
X167344091Y-91957483D01*
X167350500Y-91897873D01*
X167350499Y-90102128D01*
X167344091Y-90042517D01*
X167331362Y-90008390D01*
X167293797Y-89907671D01*
X167293793Y-89907664D01*
X167207547Y-89792455D01*
X167207544Y-89792452D01*
X167092335Y-89706206D01*
X167092328Y-89706202D01*
X166957482Y-89655908D01*
X166957483Y-89655908D01*
X166897883Y-89649501D01*
X166897881Y-89649500D01*
X166897873Y-89649500D01*
X166897864Y-89649500D01*
X165102129Y-89649500D01*
X165102123Y-89649501D01*
X165042516Y-89655908D01*
X164907671Y-89706202D01*
X164907664Y-89706206D01*
X164792455Y-89792452D01*
X164792452Y-89792455D01*
X164706206Y-89907664D01*
X164706202Y-89907671D01*
X164655908Y-90042517D01*
X164649564Y-90101528D01*
X164649501Y-90102123D01*
X164649500Y-90102135D01*
X161609999Y-90102135D01*
X161609999Y-90090028D01*
X161609998Y-90090013D01*
X161599505Y-89987302D01*
X161544358Y-89820880D01*
X161544356Y-89820875D01*
X161452315Y-89671654D01*
X161328345Y-89547684D01*
X161179124Y-89455643D01*
X161179119Y-89455641D01*
X161012697Y-89400494D01*
X161012690Y-89400493D01*
X160909986Y-89390000D01*
X160560000Y-89390000D01*
X160560000Y-90374314D01*
X160555606Y-90369920D01*
X160464394Y-90317259D01*
X160362661Y-90290000D01*
X160257339Y-90290000D01*
X160155606Y-90317259D01*
X160064394Y-90369920D01*
X160060000Y-90374314D01*
X160060000Y-89390000D01*
X159710028Y-89390000D01*
X159710012Y-89390001D01*
X159607302Y-89400494D01*
X159440880Y-89455641D01*
X159440875Y-89455643D01*
X159291654Y-89547684D01*
X159167684Y-89671654D01*
X159075643Y-89820875D01*
X159075641Y-89820880D01*
X159048407Y-89903068D01*
X159008634Y-89960513D01*
X158944118Y-89987336D01*
X158875342Y-89975021D01*
X158830382Y-89936949D01*
X158809109Y-89907669D01*
X158761966Y-89842781D01*
X158617219Y-89698034D01*
X158617217Y-89698032D01*
X158617212Y-89698028D01*
X158464762Y-89587267D01*
X158422096Y-89531937D01*
X158416117Y-89462324D01*
X158448722Y-89400529D01*
X158449895Y-89399339D01*
X160368713Y-87480521D01*
X160368716Y-87480520D01*
X160480520Y-87368716D01*
X160530639Y-87281904D01*
X160559577Y-87231785D01*
X160600500Y-87079058D01*
X160600500Y-86920943D01*
X160600500Y-86412162D01*
X160620185Y-86345123D01*
X160672989Y-86299368D01*
X160698552Y-86290907D01*
X160702788Y-86289999D01*
X160702797Y-86289999D01*
X160869334Y-86234814D01*
X161018656Y-86142712D01*
X161087879Y-86073489D01*
X161149202Y-86040004D01*
X161218894Y-86044988D01*
X161248446Y-86060853D01*
X161318646Y-86111857D01*
X161500968Y-86204755D01*
X161695582Y-86267990D01*
X161897683Y-86300000D01*
X162102317Y-86300000D01*
X162304417Y-86267990D01*
X162499031Y-86204755D01*
X162681349Y-86111859D01*
X162725921Y-86079474D01*
X162046447Y-85400000D01*
X162052661Y-85400000D01*
X162154394Y-85372741D01*
X162245606Y-85320080D01*
X162320080Y-85245606D01*
X162372741Y-85154394D01*
X162400000Y-85052661D01*
X162400000Y-85046447D01*
X163079474Y-85725921D01*
X163111859Y-85681349D01*
X163204755Y-85499031D01*
X163267990Y-85304417D01*
X163300000Y-85102317D01*
X163300000Y-84897682D01*
X163267990Y-84695582D01*
X163204755Y-84500968D01*
X163111859Y-84318650D01*
X163079474Y-84274077D01*
X163079474Y-84274076D01*
X162400000Y-84953551D01*
X162400000Y-84947339D01*
X162372741Y-84845606D01*
X162320080Y-84754394D01*
X162245606Y-84679920D01*
X162154394Y-84627259D01*
X162052661Y-84600000D01*
X162046446Y-84600000D01*
X162544312Y-84102135D01*
X165149500Y-84102135D01*
X165149500Y-85897870D01*
X165149501Y-85897876D01*
X165155908Y-85957483D01*
X165206202Y-86092328D01*
X165206206Y-86092335D01*
X165292452Y-86207544D01*
X165292455Y-86207547D01*
X165407664Y-86293793D01*
X165407671Y-86293797D01*
X165542517Y-86344091D01*
X165542516Y-86344091D01*
X165549444Y-86344835D01*
X165602127Y-86350500D01*
X167397872Y-86350499D01*
X167457483Y-86344091D01*
X167592331Y-86293796D01*
X167707546Y-86207546D01*
X167793796Y-86092331D01*
X167844091Y-85957483D01*
X167850500Y-85897873D01*
X167850499Y-84102128D01*
X167844091Y-84042517D01*
X167828233Y-84000000D01*
X167793797Y-83907671D01*
X167793793Y-83907664D01*
X167707547Y-83792455D01*
X167707544Y-83792452D01*
X167592335Y-83706206D01*
X167592328Y-83706202D01*
X167457482Y-83655908D01*
X167457483Y-83655908D01*
X167397883Y-83649501D01*
X167397881Y-83649500D01*
X167397873Y-83649500D01*
X167397864Y-83649500D01*
X165602129Y-83649500D01*
X165602123Y-83649501D01*
X165542516Y-83655908D01*
X165407671Y-83706202D01*
X165407664Y-83706206D01*
X165292455Y-83792452D01*
X165292452Y-83792455D01*
X165206206Y-83907664D01*
X165206202Y-83907671D01*
X165155908Y-84042517D01*
X165149501Y-84102116D01*
X165149501Y-84102123D01*
X165149500Y-84102135D01*
X162544312Y-84102135D01*
X162635322Y-84011125D01*
X162725922Y-83920524D01*
X162725921Y-83920523D01*
X162681359Y-83888147D01*
X162681350Y-83888141D01*
X162499031Y-83795244D01*
X162304417Y-83732009D01*
X162102317Y-83700000D01*
X161897683Y-83700000D01*
X161695582Y-83732009D01*
X161500968Y-83795244D01*
X161318651Y-83888139D01*
X161248444Y-83939148D01*
X161182637Y-83962627D01*
X161114583Y-83946801D01*
X161087878Y-83926510D01*
X161018657Y-83857289D01*
X161018656Y-83857288D01*
X160913543Y-83792454D01*
X160869336Y-83765187D01*
X160869331Y-83765185D01*
X160867862Y-83764698D01*
X160702797Y-83710001D01*
X160702795Y-83710000D01*
X160600010Y-83699500D01*
X159399998Y-83699500D01*
X159399981Y-83699501D01*
X159297203Y-83710000D01*
X159297200Y-83710001D01*
X159130668Y-83765185D01*
X159130663Y-83765187D01*
X158981342Y-83857289D01*
X158857289Y-83981342D01*
X158765187Y-84130663D01*
X158765186Y-84130666D01*
X158710001Y-84297203D01*
X158710001Y-84297204D01*
X158710000Y-84297204D01*
X158699500Y-84399983D01*
X158699500Y-85600001D01*
X158699501Y-85600018D01*
X158710000Y-85702796D01*
X158710001Y-85702799D01*
X158759231Y-85851362D01*
X158765186Y-85869334D01*
X158857288Y-86018656D01*
X158981344Y-86142712D01*
X159130666Y-86234814D01*
X159297203Y-86289999D01*
X159297209Y-86289999D01*
X159301448Y-86290907D01*
X159362884Y-86324185D01*
X159396576Y-86385394D01*
X159399500Y-86412162D01*
X159399500Y-86699902D01*
X159379815Y-86766941D01*
X159363181Y-86787583D01*
X157289481Y-88861282D01*
X157289479Y-88861285D01*
X157268162Y-88898208D01*
X157245179Y-88938017D01*
X157239361Y-88948094D01*
X157239359Y-88948096D01*
X157210425Y-88998209D01*
X157210424Y-88998210D01*
X157198338Y-89043315D01*
X157169499Y-89150943D01*
X157169499Y-89150945D01*
X157169499Y-89319046D01*
X157169500Y-89319059D01*
X157169500Y-89460397D01*
X157149815Y-89527436D01*
X157101800Y-89570879D01*
X157088389Y-89577712D01*
X156922786Y-89698028D01*
X156778028Y-89842786D01*
X156657715Y-90008386D01*
X156610485Y-90101080D01*
X156562510Y-90151876D01*
X156494689Y-90168671D01*
X156428554Y-90146134D01*
X156389515Y-90101080D01*
X156383876Y-90090013D01*
X156342287Y-90008390D01*
X156334556Y-89997749D01*
X156221971Y-89842786D01*
X156077213Y-89698028D01*
X155911613Y-89577715D01*
X155911612Y-89577714D01*
X155911610Y-89577713D01*
X155852675Y-89547684D01*
X155729223Y-89484781D01*
X155534534Y-89421522D01*
X155359995Y-89393878D01*
X155332352Y-89389500D01*
X155127648Y-89389500D01*
X155103329Y-89393351D01*
X154925465Y-89421522D01*
X154730776Y-89484781D01*
X154548386Y-89577715D01*
X154382786Y-89698028D01*
X154238028Y-89842786D01*
X154117715Y-90008386D01*
X154070485Y-90101080D01*
X154022510Y-90151876D01*
X153954689Y-90168671D01*
X153888554Y-90146134D01*
X153849515Y-90101080D01*
X153843876Y-90090013D01*
X153802287Y-90008390D01*
X153794556Y-89997749D01*
X153681971Y-89842786D01*
X153537213Y-89698028D01*
X153371613Y-89577715D01*
X153371612Y-89577714D01*
X153371610Y-89577713D01*
X153312675Y-89547684D01*
X153189223Y-89484781D01*
X152994534Y-89421522D01*
X152819995Y-89393878D01*
X152792352Y-89389500D01*
X152587648Y-89389500D01*
X152525976Y-89399268D01*
X152385464Y-89421523D01*
X152385461Y-89421523D01*
X152262818Y-89461373D01*
X152192977Y-89463368D01*
X152133144Y-89427288D01*
X152102316Y-89364587D01*
X152100500Y-89343442D01*
X152100500Y-86589060D01*
X152100501Y-86589047D01*
X152100501Y-86420944D01*
X152100501Y-86420943D01*
X152059577Y-86268216D01*
X152040293Y-86234814D01*
X151980523Y-86131288D01*
X151980521Y-86131285D01*
X151980520Y-86131284D01*
X151952798Y-86103562D01*
X151919313Y-86042241D01*
X151922547Y-85977566D01*
X151963553Y-85851368D01*
X151988637Y-85692993D01*
X152000500Y-85618097D01*
X152000500Y-85381947D01*
X154000000Y-85381947D01*
X154000000Y-85618052D01*
X154036934Y-85851247D01*
X154109897Y-86075802D01*
X154217087Y-86286174D01*
X154277338Y-86369104D01*
X154277340Y-86369105D01*
X155017037Y-85629408D01*
X155034075Y-85692993D01*
X155099901Y-85807007D01*
X155192993Y-85900099D01*
X155307007Y-85965925D01*
X155370590Y-85982962D01*
X154630893Y-86722658D01*
X154713828Y-86782914D01*
X154924197Y-86890102D01*
X155148752Y-86963065D01*
X155148751Y-86963065D01*
X155381948Y-87000000D01*
X155618052Y-87000000D01*
X155851247Y-86963065D01*
X156075802Y-86890102D01*
X156286163Y-86782918D01*
X156286169Y-86782914D01*
X156369104Y-86722658D01*
X156369105Y-86722658D01*
X155629408Y-85982962D01*
X155692993Y-85965925D01*
X155807007Y-85900099D01*
X155900099Y-85807007D01*
X155965925Y-85692993D01*
X155982962Y-85629409D01*
X156722658Y-86369105D01*
X156722658Y-86369104D01*
X156782914Y-86286169D01*
X156782918Y-86286163D01*
X156890102Y-86075802D01*
X156963065Y-85851247D01*
X157000000Y-85618052D01*
X157000000Y-85381947D01*
X156963065Y-85148752D01*
X156890102Y-84924197D01*
X156782914Y-84713828D01*
X156722658Y-84630894D01*
X156722658Y-84630893D01*
X155982962Y-85370590D01*
X155965925Y-85307007D01*
X155900099Y-85192993D01*
X155807007Y-85099901D01*
X155692993Y-85034075D01*
X155629409Y-85017037D01*
X156369105Y-84277340D01*
X156369104Y-84277338D01*
X156286174Y-84217087D01*
X156075802Y-84109897D01*
X155851247Y-84036934D01*
X155851248Y-84036934D01*
X155618052Y-84000000D01*
X155381948Y-84000000D01*
X155148752Y-84036934D01*
X154924197Y-84109897D01*
X154713830Y-84217084D01*
X154630894Y-84277340D01*
X155370591Y-85017037D01*
X155307007Y-85034075D01*
X155192993Y-85099901D01*
X155099901Y-85192993D01*
X155034075Y-85307007D01*
X155017037Y-85370590D01*
X154277340Y-84630894D01*
X154217084Y-84713830D01*
X154109897Y-84924197D01*
X154036934Y-85148752D01*
X154000000Y-85381947D01*
X152000500Y-85381947D01*
X152000500Y-85381902D01*
X151963553Y-85148631D01*
X151915259Y-84999999D01*
X151890568Y-84924008D01*
X151890566Y-84924005D01*
X151890566Y-84924003D01*
X151798625Y-84743560D01*
X151783343Y-84713567D01*
X151644517Y-84522490D01*
X151477510Y-84355483D01*
X151286433Y-84216657D01*
X151258674Y-84202513D01*
X151075996Y-84109433D01*
X150851368Y-84036446D01*
X150618097Y-83999500D01*
X150618092Y-83999500D01*
X150381908Y-83999500D01*
X150381903Y-83999500D01*
X150148631Y-84036446D01*
X149924003Y-84109433D01*
X149713566Y-84216657D01*
X149634535Y-84274077D01*
X149522490Y-84355483D01*
X149522488Y-84355485D01*
X149522487Y-84355485D01*
X149355485Y-84522487D01*
X149355485Y-84522488D01*
X149355483Y-84522490D01*
X149327000Y-84561694D01*
X149216657Y-84713566D01*
X149109433Y-84924003D01*
X149036446Y-85148631D01*
X148999500Y-85381902D01*
X145243150Y-85381902D01*
X144668547Y-84807300D01*
X144674761Y-84807300D01*
X144776494Y-84780041D01*
X144867706Y-84727380D01*
X144942180Y-84652906D01*
X144994841Y-84561694D01*
X145022100Y-84459961D01*
X145022100Y-84453748D01*
X145701574Y-85133222D01*
X145701574Y-85133221D01*
X145733959Y-85088649D01*
X145826855Y-84906331D01*
X145890090Y-84711717D01*
X145922100Y-84509617D01*
X145922100Y-84304982D01*
X145890090Y-84102882D01*
X145826855Y-83908268D01*
X145733959Y-83725950D01*
X145701574Y-83681377D01*
X145701574Y-83681376D01*
X145022100Y-84360851D01*
X145022100Y-84354639D01*
X144994841Y-84252906D01*
X144942180Y-84161694D01*
X144867706Y-84087220D01*
X144776494Y-84034559D01*
X144674761Y-84007300D01*
X144668546Y-84007300D01*
X145348022Y-83327824D01*
X145348021Y-83327823D01*
X145303459Y-83295447D01*
X145303450Y-83295441D01*
X145121131Y-83202544D01*
X144926517Y-83139309D01*
X144724417Y-83107300D01*
X144519783Y-83107300D01*
X144317682Y-83139309D01*
X144123068Y-83202544D01*
X143940744Y-83295443D01*
X143896177Y-83327823D01*
X143896177Y-83327824D01*
X144575654Y-84007300D01*
X144569439Y-84007300D01*
X144467706Y-84034559D01*
X144376494Y-84087220D01*
X144302020Y-84161694D01*
X144249359Y-84252906D01*
X144222100Y-84354639D01*
X144222100Y-84360853D01*
X143542624Y-83681377D01*
X143542623Y-83681377D01*
X143510243Y-83725944D01*
X143417344Y-83908268D01*
X143354109Y-84102882D01*
X143322100Y-84304982D01*
X139022599Y-84304982D01*
X139022599Y-83269429D01*
X139022598Y-83269423D01*
X139016191Y-83209816D01*
X138965897Y-83074971D01*
X138965893Y-83074964D01*
X138879647Y-82959755D01*
X138879644Y-82959752D01*
X138764435Y-82873506D01*
X138764428Y-82873502D01*
X138684519Y-82843698D01*
X138628585Y-82801827D01*
X138604168Y-82736362D01*
X138619020Y-82668089D01*
X138640169Y-82639837D01*
X138690342Y-82589665D01*
X138819915Y-82411322D01*
X138919995Y-82214906D01*
X138988115Y-82005251D01*
X139022600Y-81787522D01*
X139022600Y-81567078D01*
X138988115Y-81349349D01*
X138919995Y-81139694D01*
X138919995Y-81139693D01*
X138885337Y-81071675D01*
X138819915Y-80943278D01*
X138803360Y-80920492D01*
X138690347Y-80764941D01*
X138690343Y-80764936D01*
X138534463Y-80609056D01*
X138534458Y-80609052D01*
X138356125Y-80479487D01*
X138356124Y-80479486D01*
X138356122Y-80479485D01*
X138293196Y-80447422D01*
X138159706Y-80379404D01*
X138159703Y-80379403D01*
X137950052Y-80311285D01*
X137824900Y-80291463D01*
X137732322Y-80276800D01*
X137511878Y-80276800D01*
X137439301Y-80288295D01*
X137294147Y-80311285D01*
X137084496Y-80379403D01*
X137084493Y-80379404D01*
X136888074Y-80479487D01*
X136709741Y-80609052D01*
X136709736Y-80609056D01*
X136553856Y-80764936D01*
X136553852Y-80764941D01*
X136424287Y-80943274D01*
X136324204Y-81139693D01*
X136324203Y-81139696D01*
X136256085Y-81349347D01*
X136221600Y-81567078D01*
X136221600Y-81787521D01*
X136256085Y-82005252D01*
X136278911Y-82075503D01*
X136280906Y-82145344D01*
X136248661Y-82201502D01*
X134234280Y-84215884D01*
X134172957Y-84249369D01*
X134103265Y-84244385D01*
X134047332Y-84202513D01*
X134022915Y-84137049D01*
X134022599Y-84128203D01*
X134022599Y-83269429D01*
X134022598Y-83269423D01*
X134016191Y-83209816D01*
X133965897Y-83074971D01*
X133965893Y-83074964D01*
X133879647Y-82959755D01*
X133879644Y-82959752D01*
X133764435Y-82873506D01*
X133764428Y-82873502D01*
X133684519Y-82843698D01*
X133628585Y-82801827D01*
X133604168Y-82736362D01*
X133619020Y-82668089D01*
X133640169Y-82639837D01*
X133690342Y-82589665D01*
X133819915Y-82411322D01*
X133919995Y-82214906D01*
X133988115Y-82005251D01*
X134022600Y-81787522D01*
X134022600Y-81567078D01*
X133988115Y-81349349D01*
X133919995Y-81139694D01*
X133919995Y-81139693D01*
X133885337Y-81071675D01*
X133819915Y-80943278D01*
X133803360Y-80920492D01*
X133690347Y-80764941D01*
X133690343Y-80764936D01*
X133534463Y-80609056D01*
X133534458Y-80609052D01*
X133356125Y-80479487D01*
X133356124Y-80479486D01*
X133356122Y-80479485D01*
X133293196Y-80447422D01*
X133159706Y-80379404D01*
X133159703Y-80379403D01*
X132950052Y-80311285D01*
X132824900Y-80291463D01*
X132732322Y-80276800D01*
X132511878Y-80276800D01*
X132439301Y-80288295D01*
X132294147Y-80311285D01*
X132084496Y-80379403D01*
X132084493Y-80379404D01*
X131888074Y-80479487D01*
X131709741Y-80609052D01*
X131709736Y-80609056D01*
X131553856Y-80764936D01*
X131553852Y-80764941D01*
X131424287Y-80943274D01*
X131324204Y-81139693D01*
X131324203Y-81139696D01*
X131256085Y-81349347D01*
X131221600Y-81567078D01*
X131221600Y-81787521D01*
X131256085Y-82005252D01*
X131278911Y-82075503D01*
X131280906Y-82145344D01*
X131248661Y-82201502D01*
X130063586Y-83386578D01*
X129951781Y-83498382D01*
X129951779Y-83498385D01*
X129901661Y-83585194D01*
X129901659Y-83585196D01*
X129872725Y-83635309D01*
X129872724Y-83635310D01*
X129856844Y-83694572D01*
X129831799Y-83788043D01*
X129831799Y-83788045D01*
X129831799Y-83956146D01*
X129831800Y-83956159D01*
X129831800Y-86180037D01*
X129812115Y-86247076D01*
X129759311Y-86292831D01*
X129690153Y-86302775D01*
X129664469Y-86296220D01*
X129629581Y-86283208D01*
X129629583Y-86283208D01*
X129569983Y-86276801D01*
X129569981Y-86276800D01*
X129569973Y-86276800D01*
X129569964Y-86276800D01*
X127674229Y-86276800D01*
X127674223Y-86276801D01*
X127614616Y-86283208D01*
X127479771Y-86333502D01*
X127479764Y-86333506D01*
X127364555Y-86419752D01*
X127364552Y-86419755D01*
X127278306Y-86534964D01*
X127278303Y-86534969D01*
X127248498Y-86614881D01*
X127206626Y-86670814D01*
X127141162Y-86695231D01*
X127072889Y-86680379D01*
X127044635Y-86659228D01*
X126994463Y-86609056D01*
X126994458Y-86609052D01*
X126816125Y-86479487D01*
X126816124Y-86479486D01*
X126816122Y-86479485D01*
X126753196Y-86447422D01*
X126619706Y-86379404D01*
X126619703Y-86379403D01*
X126410052Y-86311285D01*
X126253142Y-86286433D01*
X126192322Y-86276800D01*
X125971878Y-86276800D01*
X125912763Y-86286163D01*
X125754147Y-86311285D01*
X125544496Y-86379403D01*
X125544493Y-86379404D01*
X125348074Y-86479487D01*
X125169741Y-86609052D01*
X125169736Y-86609056D01*
X125013856Y-86764936D01*
X125013852Y-86764941D01*
X124884287Y-86943274D01*
X124784204Y-87139693D01*
X124784203Y-87139696D01*
X124716085Y-87349347D01*
X124701645Y-87440518D01*
X124681600Y-87567078D01*
X120090968Y-87567078D01*
X120493719Y-80116190D01*
X120516993Y-80050313D01*
X120572190Y-80007475D01*
X120616352Y-79998891D01*
X172849484Y-79501433D01*
X172916707Y-79520478D01*
G37*
%TD.AperFunction*%
%TD*%
M02*
