%TF.GenerationSoftware,KiCad,Pcbnew,10.0.3*%
%TF.CreationDate,2026-08-20T21:26:25+05:45*%
%TF.ProjectId,LED-chaser,4c45442d-6368-4617-9365-722e6b696361,rev?*%
%TF.SameCoordinates,Original*%
%TF.FileFunction,Copper,L1,Top*%
%TF.FilePolarity,Positive*%
%FSLAX46Y46*%
G04 Gerber Fmt 4.6, Leading zero omitted, Abs format (unit mm)*
G04 Created by KiCad (PCBNEW 10.0.3) date 2026-08-20 21:26:25*
%MOMM*%
%LPD*%
G01*
G04 APERTURE LIST*
G04 Aperture macros list*
%AMRoundRect*
0 Rectangle with rounded corners*
0 $1 Rounding radius*
0 $2 $3 $4 $5 $6 $7 $8 $9 X,Y pos of 4 corners*
0 Add a 4 corners polygon primitive as box body*
4,1,4,$2,$3,$4,$5,$6,$7,$8,$9,$2,$3,0*
0 Add four circle primitives for the rounded corners*
1,1,$1+$1,$2,$3*
1,1,$1+$1,$4,$5*
1,1,$1+$1,$6,$7*
1,1,$1+$1,$8,$9*
0 Add four rect primitives between the rounded corners*
20,1,$1+$1,$2,$3,$4,$5,0*
20,1,$1+$1,$4,$5,$6,$7,0*
20,1,$1+$1,$6,$7,$8,$9,0*
20,1,$1+$1,$8,$9,$2,$3,0*%
G04 Aperture macros list end*
%TA.AperFunction,ComponentPad*%
%ADD10C,1.800000*%
%TD*%
%TA.AperFunction,ComponentPad*%
%ADD11R,1.800000X1.800000*%
%TD*%
%TA.AperFunction,ComponentPad*%
%ADD12C,1.295400*%
%TD*%
%TA.AperFunction,ComponentPad*%
%ADD13R,1.295400X1.295400*%
%TD*%
%TA.AperFunction,ComponentPad*%
%ADD14C,1.600000*%
%TD*%
%TA.AperFunction,ComponentPad*%
%ADD15C,2.000000*%
%TD*%
%TA.AperFunction,ComponentPad*%
%ADD16RoundRect,0.412500X-0.412500X-0.412500X0.412500X-0.412500X0.412500X0.412500X-0.412500X0.412500X0*%
%TD*%
%TA.AperFunction,ComponentPad*%
%ADD17C,1.650000*%
%TD*%
%TA.AperFunction,ComponentPad*%
%ADD18R,1.700000X1.700000*%
%TD*%
%TA.AperFunction,ComponentPad*%
%ADD19C,1.700000*%
%TD*%
%TA.AperFunction,ComponentPad*%
%ADD20RoundRect,0.250000X-0.550000X-0.550000X0.550000X-0.550000X0.550000X0.550000X-0.550000X0.550000X0*%
%TD*%
%TA.AperFunction,ComponentPad*%
%ADD21RoundRect,0.250000X-0.550000X0.550000X-0.550000X-0.550000X0.550000X-0.550000X0.550000X0.550000X0*%
%TD*%
%TA.AperFunction,Conductor*%
%ADD22C,0.200000*%
%TD*%
G04 APERTURE END LIST*
D10*
%TO.P,D9,2,A_2*%
%TO.N,Net-(D6-A)*%
X144622100Y-101177300D03*
D11*
%TO.P,D9,1,K_1*%
%TO.N,Net-(D1-K)*%
X142082100Y-101177300D03*
%TD*%
D10*
%TO.P,D5,2,A_2*%
%TO.N,Net-(D10-A)*%
X126082100Y-87677300D03*
D11*
%TO.P,D5,1,K_1*%
%TO.N,Net-(D1-K)*%
X128622100Y-87677300D03*
%TD*%
%TO.P,D6,1,K_1*%
%TO.N,Net-(D1-K)*%
X132622100Y-84217300D03*
D10*
%TO.P,D6,2,A_2*%
%TO.N,Net-(D9-A)*%
X132622100Y-81677300D03*
%TD*%
D11*
%TO.P,D4,1,K_1*%
%TO.N,Net-(D1-K)*%
X128622100Y-92177300D03*
D10*
%TO.P,D4,2,A_2*%
%TO.N,Net-(D8-A)*%
X126082100Y-92177300D03*
%TD*%
D11*
%TO.P,D1,1,K_1*%
%TO.N,Net-(D1-K)*%
X128622100Y-105677300D03*
D10*
%TO.P,D1,2,A_2*%
%TO.N,Net-(D7-A)*%
X126082100Y-105677300D03*
%TD*%
D12*
%TO.P,U2,16,VDD_16*%
%TO.N,+5V*%
X139000000Y-86960000D03*
%TO.P,U2,15,Reset_15*%
%TO.N,GND*%
X139000000Y-89500000D03*
%TO.P,U2,14,CLK_14*%
%TO.N,OUT*%
X139000000Y-92040000D03*
%TO.P,U2,13,CKEN_13*%
%TO.N,GND*%
X139000000Y-94580000D03*
%TO.P,U2,12,Cout_12*%
%TO.N,unconnected-(U2-Cout-Pad12)*%
X139000000Y-97120000D03*
%TO.P,U2,11,Q9_11*%
%TO.N,Net-(D1-A)*%
X139000000Y-99660000D03*
%TO.P,U2,10,Q4_10*%
%TO.N,Net-(D6-A)*%
X139000000Y-102200000D03*
%TO.P,U2,9,Q8_9*%
%TO.N,Net-(D2-A)*%
X139000000Y-104740000D03*
%TO.P,U2,8,VSS_8*%
%TO.N,GND*%
X131380000Y-104740000D03*
%TO.P,U2,7,Q3_7*%
%TO.N,Net-(D7-A)*%
X131380000Y-102200000D03*
%TO.P,U2,6,Q7_6*%
%TO.N,Net-(D3-A)*%
X131380000Y-99660000D03*
%TO.P,U2,5,Q6_5*%
%TO.N,Net-(D4-A)*%
X131380000Y-97120000D03*
%TO.P,U2,4,Q2_4*%
%TO.N,Net-(D8-A)*%
X131380000Y-94580000D03*
%TO.P,U2,3,Q0_3*%
%TO.N,Net-(D10-A)*%
X131380000Y-92040000D03*
%TO.P,U2,2,Q1_2*%
%TO.N,Net-(D9-A)*%
X131380000Y-89500000D03*
D13*
%TO.P,U2,1,Q5_1*%
%TO.N,Net-(D5-A)*%
X131380000Y-86960000D03*
%TD*%
D14*
%TO.P,R2,2*%
%TO.N,GND*%
X144622100Y-84407300D03*
%TO.P,R2,1*%
%TO.N,Net-(D1-K)*%
X144622100Y-92027300D03*
%TD*%
D11*
%TO.P,D2,1,K_1*%
%TO.N,Net-(D1-K)*%
X128622100Y-101177300D03*
D10*
%TO.P,D2,2,A_2*%
%TO.N,Net-(D3-A)*%
X126082100Y-101177300D03*
%TD*%
D15*
%TO.P,C2,2*%
%TO.N,GND*%
X155500000Y-85500000D03*
%TO.P,C2,1*%
%TO.N,Net-(U1-CONT)*%
X150500000Y-85500000D03*
%TD*%
D16*
%TO.P,RV1,1,1_1*%
%TO.N,Net-(R1-Pad2)*%
X153920000Y-103500000D03*
D17*
%TO.P,RV1,2,2_2*%
%TO.N,Net-(U1-DISCH)*%
X156460000Y-103500000D03*
%TO.P,RV1,3,3_3*%
%TO.N,Net-(U1-THRES)*%
X159000000Y-103500000D03*
%TD*%
D14*
%TO.P,R1,1*%
%TO.N,+5V*%
X166000000Y-98000000D03*
%TO.P,R1,2*%
%TO.N,Net-(R1-Pad2)*%
X166000000Y-105620000D03*
%TD*%
D18*
%TO.P,J2,1,Pin_1_1*%
%TO.N,OUT*%
X166500000Y-85000000D03*
%TD*%
%TO.P,J1,1,Pin_1_1*%
%TO.N,+5V*%
X166000000Y-91000000D03*
D19*
%TO.P,J1,2,Pin_2_2*%
%TO.N,GND*%
X166000000Y-93540000D03*
%TD*%
D11*
%TO.P,D7,1,K_1*%
%TO.N,Net-(D1-K)*%
X137622100Y-84217300D03*
D10*
%TO.P,D7,2,A_2*%
%TO.N,Net-(D5-A)*%
X137622100Y-81677300D03*
%TD*%
D11*
%TO.P,D3,1,K_1*%
%TO.N,Net-(D1-K)*%
X128622100Y-96677300D03*
D10*
%TO.P,D3,2,A_2*%
%TO.N,Net-(D4-A)*%
X126082100Y-96677300D03*
%TD*%
D11*
%TO.P,D10,1,K_1*%
%TO.N,Net-(D1-K)*%
X142082100Y-105677300D03*
D10*
%TO.P,D10,2,A_2*%
%TO.N,Net-(D2-A)*%
X144622100Y-105677300D03*
%TD*%
D11*
%TO.P,D8,1,K_1*%
%TO.N,Net-(D1-K)*%
X142082100Y-96677300D03*
D10*
%TO.P,D8,2,A_2*%
%TO.N,Net-(D1-A)*%
X144622100Y-96677300D03*
%TD*%
D20*
%TO.P,C1,1*%
%TO.N,Net-(U1-THRES)*%
X160000000Y-85000000D03*
D14*
%TO.P,C1,2*%
%TO.N,GND*%
X162000000Y-85000000D03*
%TD*%
%TO.P,U1,8,VCC_8*%
%TO.N,+5V*%
X160310000Y-98310000D03*
%TO.P,U1,7,DISCH_7*%
%TO.N,Net-(U1-DISCH)*%
X157770000Y-98310000D03*
%TO.P,U1,6,THRES_6*%
%TO.N,Net-(U1-THRES)*%
X155230000Y-98310000D03*
%TO.P,U1,5,CONT_5*%
%TO.N,Net-(U1-CONT)*%
X152690000Y-98310000D03*
%TO.P,U1,4,~{RST}_4*%
%TO.N,+5V*%
X152690000Y-90690000D03*
%TO.P,U1,3,OUT_3*%
%TO.N,OUT*%
X155230000Y-90690000D03*
%TO.P,U1,2,TRIG_2*%
%TO.N,Net-(U1-THRES)*%
X157770000Y-90690000D03*
D21*
%TO.P,U1,1,GND_1*%
%TO.N,GND*%
X160310000Y-90690000D03*
%TD*%
%TO.N,+5V*%
D22*
X139000000Y-86960000D02*
X142540000Y-90500000D01*
X142540000Y-90500000D02*
X152500000Y-90500000D01*
X152500000Y-90500000D02*
X152690000Y-90690000D01*
%TO.N,Net-(D1-K)*%
X142082100Y-101177300D02*
X142082100Y-96677300D01*
X142082100Y-105677300D02*
X142082100Y-101177300D01*
X128622100Y-101177300D02*
X128622100Y-105677300D01*
X128622100Y-96677300D02*
X128622100Y-101177300D01*
X128622100Y-92177300D02*
X128622100Y-96677300D01*
X128622100Y-87677300D02*
X128622100Y-92177300D01*
X128622100Y-87677300D02*
X132082100Y-84217300D01*
X132082100Y-84217300D02*
X132622100Y-84217300D01*
X132622100Y-84217300D02*
X137622100Y-84217300D01*
%TO.N,OUT*%
X140880251Y-87500000D02*
X139392551Y-86012300D01*
X152040000Y-87500000D02*
X140880251Y-87500000D01*
X155230000Y-90690000D02*
X152040000Y-87500000D01*
X139392551Y-86012300D02*
X138607449Y-86012300D01*
X138607449Y-86012300D02*
X138052300Y-86567449D01*
X138052300Y-86567449D02*
X138052300Y-91092300D01*
X138052300Y-91092300D02*
X139000000Y-92040000D01*
X155230000Y-90690000D02*
X155230000Y-91270000D01*
%TO.N,+5V*%
X152690000Y-90690000D02*
X160310000Y-98310000D01*
%TO.N,Net-(U1-THRES)*%
X160000000Y-85000000D02*
X159200000Y-85000000D01*
%TO.N,OUT*%
X166500000Y-85000000D02*
X165115256Y-86384744D01*
X165115256Y-86384744D02*
X159535256Y-86384744D01*
X159535256Y-86384744D02*
X155230000Y-90690000D01*
%TO.N,+5V*%
X166000000Y-98000000D02*
X164500000Y-96500000D01*
X164500000Y-96500000D02*
X164500000Y-92500000D01*
X164500000Y-92500000D02*
X166000000Y-91000000D01*
X166000000Y-98000000D02*
X165500000Y-98000000D01*
X165500000Y-98000000D02*
X165190000Y-98310000D01*
X165190000Y-98310000D02*
X160310000Y-98310000D01*
%TO.N,Net-(U1-THRES)*%
X159000000Y-103500000D02*
X157875000Y-104625000D01*
X157875000Y-104625000D02*
X155994009Y-104625000D01*
X155994009Y-104625000D02*
X155230000Y-103860991D01*
X155230000Y-103860991D02*
X155230000Y-98310000D01*
%TO.N,Net-(U1-DISCH)*%
X156460000Y-103500000D02*
X156460000Y-101040000D01*
X156460000Y-101040000D02*
X157770000Y-99730000D01*
X157770000Y-99730000D02*
X157770000Y-98310000D01*
%TO.N,Net-(R1-Pad2)*%
X166000000Y-105620000D02*
X156040000Y-105620000D01*
X156040000Y-105620000D02*
X153920000Y-103500000D01*
%TO.N,Net-(D1-K)*%
X142082100Y-96082100D02*
X144622100Y-93542100D01*
X144622100Y-93542100D02*
X144622100Y-92027300D01*
X142082100Y-96677300D02*
X142082100Y-96082100D01*
%TD*%
M02*
