%TF.GenerationSoftware,KiCad,Pcbnew,10.0.3*%
%TF.CreationDate,2026-08-30T20:21:07+05:45*%
%TF.ProjectId,LED-chaser,4c45442d-6368-4617-9365-722e6b696361,rev?*%
%TF.SameCoordinates,Original*%
%TF.FileFunction,Profile,NP*%
%FSLAX46Y46*%
G04 Gerber Fmt 4.6, Leading zero omitted, Abs format (unit mm)*
G04 Created by KiCad (PCBNEW 10.0.3) date 2026-08-30 20:21:07*
%MOMM*%
%LPD*%
G01*
G04 APERTURE LIST*
%TA.AperFunction,Profile*%
%ADD10C,0.100000*%
%TD*%
G04 APERTURE END LIST*
D10*
X112910199Y-89557954D02*
G75*
G02*
X113071285Y-86964922I15468801J340554D01*
G01*
X113071284Y-86964922D02*
G75*
G02*
X113667210Y-84411758I15605816J-2296378D01*
G01*
X113178350Y-92192167D02*
G75*
G02*
X112910197Y-89557954I16411350J3001367D01*
G01*
X113667213Y-84411759D02*
G75*
G02*
X114693403Y-81896207I17290187J-5586241D01*
G01*
X113671438Y-94171843D02*
G75*
G02*
X113178345Y-92192168I15386762J4883743D01*
G01*
X114422736Y-96138603D02*
G75*
G02*
X113671435Y-94171844I16691964J7503203D01*
G01*
X115412117Y-98044180D02*
G75*
G02*
X114422740Y-96138601I16370083J9708980D01*
G01*
X115479704Y-80455864D02*
X114693406Y-81896208D01*
X116343312Y-79136381D02*
X115479704Y-80455864D01*
X116616591Y-99841060D02*
G75*
G02*
X115412123Y-98044176I15657009J11797160D01*
G01*
X116616591Y-99841060D02*
X116926229Y-100235424D01*
X116926229Y-100235424D02*
X117299367Y-100679850D01*
X117299367Y-100679850D02*
X117696818Y-101129447D01*
X117310492Y-77901354D02*
X116343312Y-79136381D01*
X117696818Y-101129447D02*
X118081241Y-101540615D01*
X118081241Y-101540615D02*
X118374690Y-101834401D01*
X118374690Y-101834401D02*
X119870075Y-103278215D01*
X118407189Y-76714193D02*
X117310492Y-77901354D01*
X119435568Y-75753527D02*
X118407189Y-76714193D01*
X119870075Y-103278215D02*
X121619801Y-104963488D01*
X120491984Y-74902952D02*
X119435568Y-75753527D01*
X121614354Y-74134342D02*
X120491984Y-74902952D01*
X121619801Y-104963488D02*
X123620886Y-106885332D01*
X122840574Y-73419523D02*
X121614354Y-74134342D01*
X123620886Y-106885332D02*
X125963278Y-109132448D01*
X124105652Y-72806328D02*
X122840574Y-73419523D01*
X125425832Y-72298391D02*
X124105652Y-72806328D01*
X125963278Y-109132448D02*
X128764095Y-111819456D01*
X126787842Y-71900617D02*
X125425832Y-72298391D01*
X128178122Y-71617169D02*
X126787842Y-71900617D01*
X128602191Y-71556077D02*
X128178122Y-71617169D01*
X128764095Y-111819456D02*
X131563365Y-114505074D01*
X129178651Y-71486723D02*
X128602191Y-71556077D01*
X129749858Y-71425832D02*
X129178651Y-71486723D01*
X130149239Y-71393633D02*
X129749858Y-71425832D01*
X130613276Y-71381550D02*
X130149239Y-71393633D01*
X131482080Y-71395127D02*
X130613276Y-71381550D01*
X131563365Y-114505074D02*
X133900611Y-116747519D01*
X132351916Y-71419858D02*
X131482080Y-71395127D01*
X132845030Y-71452699D02*
X132351916Y-71419858D01*
X133900611Y-116747519D02*
X136114918Y-118872047D01*
X134386595Y-71664805D02*
X132845030Y-71452699D01*
X135887757Y-71993551D02*
X134386595Y-71664805D01*
X136114918Y-118872047D02*
X138526268Y-121185560D01*
X137349361Y-72439530D02*
X135887757Y-71993551D01*
X138526268Y-121185560D02*
X140776488Y-123344425D01*
X138772516Y-73002628D02*
X137349361Y-72439530D01*
X138772516Y-73002628D02*
G75*
G02*
X140621430Y-73951409I-7369616J-16637272D01*
G01*
X140621432Y-73951406D02*
G75*
G02*
X142391804Y-75123538I-10043032J-17091894D01*
G01*
X140776488Y-123344425D02*
X142441275Y-124941550D01*
X142391804Y-75123539D02*
G75*
G02*
X144015698Y-76470106I-11666404J-15721561D01*
G01*
X142441275Y-124941550D02*
X145850197Y-128211832D01*
X144015696Y-76470108D02*
G75*
G02*
X145426602Y-77940391I-11576396J-12520992D01*
G01*
X145777724Y-78353040D02*
X145426607Y-77940386D01*
X145850197Y-128211832D02*
X146306316Y-127762874D01*
X146007483Y-78070305D02*
X145777724Y-78353040D01*
X146306316Y-127762874D02*
X146983922Y-127098629D01*
X146873078Y-77085442D02*
X146007483Y-78070305D01*
X146983922Y-127098629D02*
X154323641Y-119933010D01*
X147843228Y-76132470D02*
X146873078Y-77085442D01*
X148864423Y-75260390D02*
X147843228Y-76132470D01*
X149883071Y-74518595D02*
X148864423Y-75260390D01*
X149883071Y-74518595D02*
G75*
G02*
X151727727Y-73446202I9781129J-14702105D01*
G01*
X151727725Y-73446198D02*
G75*
G02*
X153690037Y-72602931I7967875J-15836702D01*
G01*
X153690038Y-72602935D02*
G75*
G02*
X155741643Y-72001010I6018262J-16715365D01*
G01*
X154323641Y-119933010D02*
X161467273Y-112959665D01*
X155741642Y-72001004D02*
G75*
G02*
X157852876Y-71649104I3983958J-17392696D01*
G01*
X158422689Y-71600944D02*
X157852876Y-71649100D01*
X159115139Y-71565103D02*
X158422689Y-71600944D01*
X159789059Y-71546051D02*
X159115139Y-71565103D01*
X160290093Y-71551684D02*
X159789059Y-71546051D01*
X161022120Y-71588821D02*
X160290093Y-71551684D01*
X161467273Y-112959665D02*
X167532726Y-107040335D01*
X161665931Y-71639971D02*
X161022120Y-71588821D01*
X162263789Y-71708836D02*
X161665931Y-71639971D01*
X162855970Y-71799410D02*
X162263789Y-71708836D01*
X162855970Y-71799410D02*
G75*
G02*
X164738872Y-72222833I-3227670J-18751190D01*
G01*
X164738871Y-72222835D02*
G75*
G02*
X166540658Y-72829938I-4814571J-17266165D01*
G01*
X166540660Y-72829932D02*
G75*
G02*
X168261904Y-73622030I-6570060J-16543068D01*
G01*
X167532726Y-107040335D02*
X170841334Y-103809493D01*
X168261902Y-73622034D02*
G75*
G02*
X169903992Y-74598531I-8570602J-16281366D01*
G01*
X169903990Y-74598533D02*
G75*
G02*
X171891094Y-76139658I-9806790J-14696367D01*
G01*
X170841334Y-103809493D02*
X172025931Y-102639388D01*
X171891089Y-76139663D02*
G75*
G02*
X173655232Y-77958046I-12149489J-13552037D01*
G01*
X172025931Y-102639388D02*
X172687004Y-101958949D01*
X172687004Y-101958949D02*
X173182006Y-101400073D01*
X173655227Y-77958051D02*
G75*
G02*
X175146019Y-79999325I-13850327J-11680249D01*
G01*
X174960858Y-98983279D02*
G75*
G02*
X173182002Y-101400069I-21178758J13725379D01*
G01*
X175146015Y-79999328D02*
G75*
G02*
X176318466Y-82204766I-14629115J-9191472D01*
G01*
X176309830Y-96526273D02*
G75*
G02*
X174960860Y-98983281I-17493030J8005373D01*
G01*
X176915210Y-83729634D02*
X176318469Y-82204765D01*
X176915210Y-83729634D02*
G75*
G02*
X177356832Y-85252982I-15771110J-5397766D01*
G01*
X177234224Y-94013143D02*
G75*
G02*
X176309826Y-96526271I-16808724J4756143D01*
G01*
X177356835Y-85252981D02*
G75*
G02*
X177656632Y-86831500I-16667735J-3983319D01*
G01*
X177745145Y-91428905D02*
G75*
G02*
X177234225Y-94013143I-16260645J1872205D01*
G01*
X177745145Y-91428905D02*
X177814937Y-90687507D01*
X177814937Y-90687507D02*
X177851898Y-89960870D01*
X177828162Y-88522002D02*
X177656629Y-86831500D01*
X177851898Y-89960870D02*
X177856227Y-89241523D01*
X177856227Y-89241523D02*
X177828162Y-88522002D01*
M02*
