%TF.GenerationSoftware,KiCad,Pcbnew,10.0.3*%
%TF.CreationDate,2026-08-20T21:26:25+05:45*%
%TF.ProjectId,LED-chaser,4c45442d-6368-4617-9365-722e6b696361,rev?*%
%TF.SameCoordinates,Original*%
%TF.FileFunction,Legend,Bot*%
%TF.FilePolarity,Positive*%
%FSLAX46Y46*%
G04 Gerber Fmt 4.6, Leading zero omitted, Abs format (unit mm)*
G04 Created by KiCad (PCBNEW 10.0.3) date 2026-08-20 21:26:25*
%MOMM*%
%LPD*%
G01*
G04 APERTURE LIST*
%ADD10C,0.200000*%
G04 APERTURE END LIST*
D10*
X167737469Y-79843409D02*
X167600564Y-79891028D01*
X167600564Y-79891028D02*
X167558898Y-79938647D01*
X167558898Y-79938647D02*
X167523183Y-80033885D01*
X167523183Y-80033885D02*
X167541041Y-80176742D01*
X167541041Y-80176742D02*
X167600564Y-80271980D01*
X167600564Y-80271980D02*
X167654136Y-80319600D01*
X167654136Y-80319600D02*
X167755326Y-80367219D01*
X167755326Y-80367219D02*
X168136279Y-80367219D01*
X168136279Y-80367219D02*
X168011279Y-79367219D01*
X168011279Y-79367219D02*
X167677945Y-79367219D01*
X167677945Y-79367219D02*
X167588660Y-79414838D01*
X167588660Y-79414838D02*
X167546993Y-79462457D01*
X167546993Y-79462457D02*
X167511279Y-79557695D01*
X167511279Y-79557695D02*
X167523183Y-79652933D01*
X167523183Y-79652933D02*
X167582707Y-79748171D01*
X167582707Y-79748171D02*
X167636279Y-79795790D01*
X167636279Y-79795790D02*
X167737469Y-79843409D01*
X167737469Y-79843409D02*
X168070802Y-79843409D01*
X166660088Y-80367219D02*
X167136279Y-80367219D01*
X167136279Y-80367219D02*
X167011279Y-79367219D01*
X166326755Y-80367219D02*
X166201755Y-79367219D01*
X165850565Y-80367219D02*
X165725565Y-79367219D01*
X165725565Y-79367219D02*
X165279136Y-80367219D01*
X165279136Y-80367219D02*
X165154136Y-79367219D01*
X164802946Y-80367219D02*
X164677946Y-79367219D01*
X164231517Y-80367219D02*
X164588660Y-79795790D01*
X164106517Y-79367219D02*
X164749374Y-79938647D01*
X163552946Y-79891028D02*
X163612469Y-80367219D01*
X163820803Y-79367219D02*
X163552946Y-79891028D01*
X163552946Y-79891028D02*
X163154136Y-79367219D01*
X161785088Y-79843409D02*
X161648183Y-79891028D01*
X161648183Y-79891028D02*
X161606517Y-79938647D01*
X161606517Y-79938647D02*
X161570802Y-80033885D01*
X161570802Y-80033885D02*
X161588660Y-80176742D01*
X161588660Y-80176742D02*
X161648183Y-80271980D01*
X161648183Y-80271980D02*
X161701755Y-80319600D01*
X161701755Y-80319600D02*
X161802945Y-80367219D01*
X161802945Y-80367219D02*
X162183898Y-80367219D01*
X162183898Y-80367219D02*
X162058898Y-79367219D01*
X162058898Y-79367219D02*
X161725564Y-79367219D01*
X161725564Y-79367219D02*
X161636279Y-79414838D01*
X161636279Y-79414838D02*
X161594612Y-79462457D01*
X161594612Y-79462457D02*
X161558898Y-79557695D01*
X161558898Y-79557695D02*
X161570802Y-79652933D01*
X161570802Y-79652933D02*
X161630326Y-79748171D01*
X161630326Y-79748171D02*
X161683898Y-79795790D01*
X161683898Y-79795790D02*
X161785088Y-79843409D01*
X161785088Y-79843409D02*
X162118421Y-79843409D01*
X160868421Y-79367219D02*
X160677945Y-79367219D01*
X160677945Y-79367219D02*
X160588660Y-79414838D01*
X160588660Y-79414838D02*
X160505326Y-79510076D01*
X160505326Y-79510076D02*
X160481517Y-79700552D01*
X160481517Y-79700552D02*
X160523183Y-80033885D01*
X160523183Y-80033885D02*
X160594612Y-80224361D01*
X160594612Y-80224361D02*
X160701755Y-80319600D01*
X160701755Y-80319600D02*
X160802945Y-80367219D01*
X160802945Y-80367219D02*
X160993421Y-80367219D01*
X160993421Y-80367219D02*
X161082707Y-80319600D01*
X161082707Y-80319600D02*
X161166041Y-80224361D01*
X161166041Y-80224361D02*
X161189850Y-80033885D01*
X161189850Y-80033885D02*
X161148183Y-79700552D01*
X161148183Y-79700552D02*
X161076755Y-79510076D01*
X161076755Y-79510076D02*
X160969612Y-79414838D01*
X160969612Y-79414838D02*
X160868421Y-79367219D01*
X160148183Y-80081504D02*
X159671993Y-80081504D01*
X160279136Y-80367219D02*
X159820802Y-79367219D01*
X159820802Y-79367219D02*
X159612469Y-80367219D01*
X158707707Y-80367219D02*
X158981517Y-79891028D01*
X159279136Y-80367219D02*
X159154136Y-79367219D01*
X159154136Y-79367219D02*
X158773183Y-79367219D01*
X158773183Y-79367219D02*
X158683898Y-79414838D01*
X158683898Y-79414838D02*
X158642231Y-79462457D01*
X158642231Y-79462457D02*
X158606517Y-79557695D01*
X158606517Y-79557695D02*
X158624374Y-79700552D01*
X158624374Y-79700552D02*
X158683898Y-79795790D01*
X158683898Y-79795790D02*
X158737469Y-79843409D01*
X158737469Y-79843409D02*
X158838659Y-79891028D01*
X158838659Y-79891028D02*
X159219612Y-79891028D01*
X158279136Y-80367219D02*
X158154136Y-79367219D01*
X158154136Y-79367219D02*
X157916040Y-79367219D01*
X157916040Y-79367219D02*
X157779136Y-79414838D01*
X157779136Y-79414838D02*
X157695802Y-79510076D01*
X157695802Y-79510076D02*
X157660088Y-79605314D01*
X157660088Y-79605314D02*
X157636279Y-79795790D01*
X157636279Y-79795790D02*
X157654136Y-79938647D01*
X157654136Y-79938647D02*
X157725564Y-80129123D01*
X157725564Y-80129123D02*
X157785088Y-80224361D01*
X157785088Y-80224361D02*
X157892231Y-80319600D01*
X157892231Y-80319600D02*
X158041040Y-80367219D01*
X158041040Y-80367219D02*
X158279136Y-80367219D01*
M02*
